/* XPM */
static char *_740af044ada4447fc8559767e0208fa1neUVajSYOHn1qYK[] = {
/* columns rows colors chars-per-pixel */
"64 64 252 2 ",
"   c #02070C",
".  c #02130E",
"X  c #041716",
"o  c #050E13",
"O  c #152927",
"+  c #1B2726",
"@  c #463D3E",
"#  c #123752",
"$  c #0E3C62",
"%  c #1D415B",
"&  c #2E4959",
"*  c #1C4A6D",
"=  c #14456B",
"-  c #064678",
";  c #174976",
":  c #19527E",
">  c #294C69",
",  c #365468",
"<  c #244E75",
"1  c #21537C",
"2  c #285274",
"3  c #325876",
"4  c #324D6B",
"5  c #4E4D4F",
"6  c #645653",
"7  c #746C51",
"8  c #405F7C",
"9  c #5A6868",
"0  c #5A6A79",
"q  c #49657D",
"w  c #6A797B",
"e  c #6D716E",
"r  c #8C7A4B",
"t  c #80716C",
"y  c #798172",
"u  c #A79159",
"i  c #A18A54",
"p  c #8B8565",
"a  c #878B7D",
"s  c #96957B",
"d  c #978D6B",
"f  c #A59966",
"g  c #B49F60",
"h  c #ACA478",
"j  c #B7A878",
"k  c #B4A66E",
"l  c #9D9459",
"z  c #C1A35B",
"x  c #CAAD69",
"c  c #084D8A",
"v  c #114F85",
"b  c #0A5288",
"n  c #1B5484",
"m  c #14568A",
"M  c #195789",
"N  c #0C5B9B",
"B  c #095899",
"V  c #115C9D",
"C  c #175A95",
"Z  c #024F96",
"A  c #255A87",
"S  c #345D83",
"D  c #215D91",
"F  c #0E629F",
"G  c #1B629D",
"H  c #15629B",
"J  c #396487",
"K  c #23659B",
"L  c #296697",
"P  c #366895",
"I  c #3C729A",
"U  c #045DA6",
"Y  c #0C5EA3",
"T  c #045DAB",
"R  c #0358A5",
"E  c #115EA3",
"W  c #0C62A5",
"Q  c #0B61AA",
"!  c #0460A9",
"~  c #1362A4",
"^  c #1C64A3",
"/  c #1768AB",
"(  c #0B64B3",
")  c #1F6FB4",
"_  c #256AA5",
"`  c #376FA5",
"'  c #3975AB",
"]  c #2875B5",
"[  c #3276B6",
"{  c #2A70AE",
"}  c #486889",
"|  c #446F95",
" . c #4C7597",
".. c #577796",
"X. c #537187",
"o. c #68788B",
"O. c #777C84",
"+. c #647B96",
"@. c #7C7F90",
"#. c #4879A5",
"$. c #467FB2",
"%. c #6C8589",
"&. c #778488",
"*. c #688698",
"=. c #768B99",
"-. c #799599",
";. c #7E938C",
":. c #5786AA",
">. c #4882B5",
",. c #5689B5",
"<. c #5790BB",
"1. c #4C82A8",
"2. c #6786A6",
"3. c #6F97AA",
"4. c #7A97A7",
"5. c #6393B9",
"6. c #779AB5",
"7. c #788FA4",
"8. c #7BA4AC",
"9. c #6EA0BD",
"0. c #7CA5BC",
"q. c #7EAABB",
"w. c #7DA6B5",
"e. c #5F8695",
"r. c #3980C2",
"t. c #5797D7",
"y. c #5794C5",
"u. c #669AC9",
"i. c #769EC2",
"p. c #78A5C8",
"a. c #6FA6CF",
"s. c #7EB6E7",
"d. c #848989",
"f. c #979689",
"g. c #878D93",
"h. c #928F93",
"j. c #899595",
"k. c #9B9799",
"l. c #8A958C",
"z. c #A29890",
"x. c #97A397",
"c. c #9EA28C",
"v. c #A7A69B",
"b. c #B7AF8E",
"n. c #8599A6",
"m. c #969AA4",
"M. c #839FB4",
"N. c #86A2AB",
"B. c #98A6A9",
"V. c #82A6B5",
"C. c #8DA5B3",
"Z. c #85A9B5",
"A. c #83ABBC",
"S. c #8AADBB",
"D. c #89A7B6",
"F. c #95ADB8",
"G. c #9CB6BA",
"H. c #8BB2BB",
"J. c #A6A7A7",
"K. c #ADB5AC",
"L. c #B8B6A7",
"P. c #A7B4B8",
"I. c #B8B9B9",
"U. c #AAACB5",
"Y. c #C4BF87",
"T. c #C1BBAA",
"R. c #C1BDBA",
"E. c #B7C2B7",
"W. c #BEC1AE",
"Q. c #D3CC99",
"!. c #CBC4BC",
"~. c #C8C7B9",
"^. c #D3C8BD",
"/. c #D5D3AF",
"(. c #E3E1BB",
"). c #E6D9AF",
"_. c #84ABC6",
"`. c #8BB3C4",
"'. c #97B6C7",
"]. c #82ACD1",
"[. c #89B5D7",
"{. c #96BBD7",
"}. c #9CAEC2",
"|. c #A6BAC6",
" X c #A7BBD2",
".X c #B8BDC5",
"XX c #81BDF9",
"oX c #ABC1CB",
"OX c #B9C7C9",
"+X c #A8C3D7",
"@X c #B9CBD5",
"#X c #BCD1DA",
"$X c #9AC4E3",
"%X c #8BC6FC",
"&X c #A4C8E7",
"*X c #BCD5E4",
"=X c #A6D4F8",
"-X c #BBDBF6",
";X c #AACFEE",
":X c #BDE2FD",
">X c #B6E2FC",
",X c #CCCDC8",
"<X c #C6C9C8",
"1X c #D2CCC6",
"2X c #CDD2CE",
"3X c #D8D5CA",
"4X c #C7CBD4",
"5X c #C7D3D6",
"6X c #D5D5D8",
"7X c #E4DDCA",
"8X c #E1D7D6",
"9X c #FCF7D6",
"0X c #F0EDCF",
"qX c #C6D8E8",
"wX c #CDDCEF",
"eX c #E5DFE3",
"rX c #C7E7FD",
"tX c #D5E9FA",
"yX c #DCF4FF",
"uX c #D6F4FF",
"iX c #D7E1E8",
"pX c #EAEEEB",
"aX c #FFFCE6",
"sX c #FEFDED",
"dX c #F7F4E9",
"fX c #E5FDFF",
"gX c #EDFEFF",
"hX c #EBF5F8",
"jX c #F4F5F5",
"kX c #F5FBF3",
"lX c #FEFDF5",
"zX c #F4F6FB",
"xX c #FCF5FC",
"cX c #F2FFFF",
"vX c #F5FFFF",
"bX c #F4FDFE",
"nX c #FFFEFB",
"mX c #FFFDF9",
"MX c #F8FFFF",
"NX c #FBFFFF",
"BX c #F9FDFF",
"VX c #FFFFFD",
"CX c #FFFEFD",
"ZX c #FFFDFF",
"AX c #FCFFFF",
"SX c #FEFFFF",
"DX c white",
"FX c #FFFEFF",
"GX c #FEFCFD",
"HX c #FFFFFF",
"JX c #FEF5F2",
"KX c #F2EFEE",
/* pixels */
"DXDXDXDXDXDXDXDXDXDXDXDXDXDXDXDXnXDXnXDXDXDXDXDXDXDXDXDXNXNXBXzXDXGXGXBXvXvXDXnXmXlXxXlXDXNXcXcXDXDXDXDXDXDXDXDXDXDXDXDXDXDXDXDX",
"DXDXDXDXDXDXDXDXDXDXDXDXDXDXDXDXDXDXDXnXnXDXDXDXDXGXGXBXDXGXBXDXGXGXGXNXNXNXmXlXmXmXlXmXDXNXvXcXNXDXDXDXDXDXDXDXDXDXDXDXDXDXDXDX",
"DXDXDXDXDXDXDXDXDXDXDXDXDXDXDXDXDXDXDXDXDXnXnXnXGXmXDXGXGXGXGXGXxXxXDXDXDXDXnXnXlXlXmXmXDXNXvXvXNXDXDXDXDXDXDXDXDXDXDXDXDXDXDXDX",
"DXDXDXDXDXDXDXDXDXDXDXDXDXDXDXDXNXNXDXDXnXnXmXlXxXlXDXGXDXDXGXDXDXGXDXmXBXzXmXlXmXmXmXmXnXNXvXNXNXDXDXDXDXDXDXDXDXDXDXDXDXDXDXDX",
"DXDXDXDXDXDXDXDXDXDXDXDXDXDXDXDXNXDXDXDXnXnXnXlXlXlXmXGXGXxXBXzXDXGXDXnXBXNXDXnXnXmXmXnXnXDXNXNXDXDXDXDXDXDXDXDXDXDXDXDXDXDXDXDX",
"DXDXDXDXDXDXDXDXDXDXDXDXDXDXDXDXNXNXNXDXmXnXnXlXmXnXGXBXNXNXNXvXzXBXvXvXvXbXcXzXDXDXGXDXDXnXnXDXDXDXDXDXDXDXDXDXDXDXDXDXDXDXDXDX",
"DXDXDXDXDXDXDXDXDXDXDXDXDXDXDXDXDXDXDXDXDXnXDXDXGXDXvXBXcXcXgXgXgXgXgXgXgXgXgXcXNXNXDXDXDXnXnXlXnXDXDXDXDXDXDXDXDXDXDXDXDXDXDXDX",
"DXDXDXDXDXDXDXDXDXDXDXDXDXDXDXDXDXDXDXDXDXDXNXNXNXcXgXfXrX;X{.]._.p.p.{.&XrXyXfXgXcXvXNXDXnXlXlXnXDXDXDXDXDXDXDXDXDXDXDXDXDXDXDX",
"DXDXDXDXDXDXDXDXDXDXDXDXDXDXDXDXDXnXBXNXDXvXcXcXgXtX;Xp.u.$.#.$.' #.$.#.1.,.9.[.:XfXcXcXNXDXlXlXnXDXDXDXDXDXDXDXDXDXDXDXDXDXDXDX",
"DXDXDXDXDXDXDXDXDXDXDXDXDXDXDXDXNXJXDXNXzXvXgXrX;X].<.>.` _ E ^ E E ^ _ L L 1.>.9.[.rXgXNXBXlXlXnXDXDXDXDXDXDXDXDXDXDXDXDXDXDXDX",
"DXDXDXDXDXDXDXDXDXDXDXDXDXDXDXnXnXJXDXNXfXcXuX$X<.' K G E E E R T U Y N H C G K ` $.p.&XhXNXKXDXDXDXDXDXDXDXDXDXDXDXDXDXDXDXDXDX",
"DXDXDXDXDXDXDXDXDXDXDXDXDXDXDXDXlXnXNXvXgXrX[.,.` _ V Y E / T ( ( Q Q W W H H H C [ ` #.&XgXcXNXDXDXDXDXDXDXDXDXDXDXDXDXDXDXDXDX",
"DXDXDXDXDXDXDXDXDXDXDXDXDXDXDXDXnXDXvXcXuX[.#.K ^ ~ Y W R Y Y T Q ! W W F F F F E E { #.#. XzXhXNXDXDXDXDXDXDXDXDXDXDXDXDXDXDXDX",
"DXDXDXDXDXDXDXDXDXDXDXDXDXDXDXDXDXzXvXfX$X:.` G N ! ! W E R E E Q Q N N N F W ! R R E { P #.wXxXNXDXDXDXDXDXDXDXDXDXDXDXDXDXDXDX",
"DXDXDXDXDXDXDXDXDXDXDXDXDXDXDXDXNXvXgX*X:.P _ ~ W Q Q Q E E C V E E N B N H F ! ( ( R E ` | ].zXNXDXDXDXDXDXDXDXDXDXDXDXDXDXDXDX",
"DXDXDXDXDXDXDXDXDXDXDXDXDXDXDXDXBXvXuX_.#.L C B Y U R Y V C C v v m M m m C F N T R ( E _ P +.tXNXDXDXDXDXDXDXDXDXDXDXDXDXDXDXDX",
"DXDXDXDXDXDXDXDXDXDXDXDXDXDXDXDXvXcX:X| [ _ N E N Y Y B C A < } ..X...J S n - ^ U ( U Z G P | qXvXDXDXDXDXDXmXDXDXDXDXDXDXDXDXDX",
"DXDXDXDXDXDXDXDXDXDXDXDXDXDXDXDXvXcX;X` { ~ N V V V E C A $. XqX*X*XqX*X+X6.#.v Z Y W F ' #.X.+XvXDXDXDXDXDXmXBXDXDXDXDXDXDXDXDX",
"DXDXDXDXDXDXDXDXDXDXDXDXDXDXDXDXNXcX].P _ Y Y Y B G - L [.-XqXqX#X#XOX5X#X*X+X<.L M b : ,.9.8.oXcXDXDXmXDXDXBXDXDXDXDXDXDXDXDXDX",
"DXDXDXDXDXDXDXDXDXDXDXDXDXDXDXNXNXcX6.P G B Y U F G M p.-XqX X4X5XOXOX2XE.5XOXrX{.5.I J 9.w.8.G.hXDXDXBXDXDXDXDXDXDXDXDXDXDXDXDX",
"DXDXDXDXDXDXDXDXDXDXDXDXDXDXDXDXDXcX7.I G B ! ! F - 1.qX@X.X6X4XOX6X,X~.1X3X,X4X#X'.q.3.A.3.-.G.hXDXDXmXDXDXDXDXDXDXDXDXDXDXDXDX",
"DXDXDXDXDXDXDXDXDXDXDXDXDXDXDXDXNXgX7.J K B U ! H - 4.qX4X4X6X.XOX2X,X^.^.z.T.2X#XE.H.Z.N.-.-.B.pXDXDXBXDXDXDXDXDXDXDXDXDXDXDXDX",
"DXDXDXDXDXDXDXDXDXDXDXDXDXDXDXDXNXcX4.J G B U U N P +X<X<X!.4X6XeX.X<X3X6 6 @ J.iXOXB.n.;.j.f.h.pXDXDXnXDXDXDXDXDXDXDXDXDXDXDXDX",
"DXDXDXDXDXDXDXDXDXDXDXDXDXDXDXDXDXvXC.8 D B R ! N n #X3X^.^.1X<X4X4X6XJ.  eX5 + 5X5XK.x.a k.b.v.KXDXDXnXDXDXDXDXDXDXDXDXDXDXDXDX",
"DXDXDXDXDXDXDXDXDXDXDXDXDXDXDXDXGXNX X8 D C R T c P #X<X8XR.1X6X!.6X6X@.  d.9   G.5XK.a s h b.Y.JXDXmXDXDXBXDXGXDXDXDXDXDXDXDXDX",
"DXDXDXDXDXDXDXDXDXDXDXDXDXDXDXDXzXBXwXX.P M Z Z v A  X<X!.^.1X^.1XR.2Xg.      X x.OXc.s b.j g g 3XmXNXnXDXGXDXGXDXDXDXDXDXDXDXDX",
"DXDXDXDXDXDXDXDXDXDXDXDXDXDXDXDXDXzXNX+.S A C c n n C.4XR.!.1X!.1X1X2Xx.o O O o ;.E.c.s k u z u T.kXDXzXmXDXDXDXDXDXDXDXDXDXDXDX",
"DXDXDXDXDXDXDXDXDXDXDXDXDXDXDXDXDXBXvXwX> J A : $ n +. X}..XI.!.R.L.~.E.O o X X x.c.s b.k g x i T.lXDXxXDXDXDXDXDXDXDXDXDXDXDXDX",
"DXDXDXDXDXDXDXDXDXDXDXDXDXDXDXDXDXzXvXgX7.4 4 3 < * 3 _.}.U.z.T.L.L.K.I.l.. . 9 J.f.d r d f r r 7XDXBXmXDXDXDXDXDXDXDXDXDXDXDXDX",
"DXDXDXDXDXDXDXDXDXDXDXDXDXDXDXDXBXBXvXfXfX0 , > 4 < = #.M.F.f.v.z.J.v.m.I.j.d.x.t z.a 7 7 7 r 7XJXDXmXGXDXNXDXBXDXDXDXDXDXDXDXDX",
"DXDXDXDXDXDXDXDXDXDXDXDXDXDXDXnXkXNXhXcXvXiXw & 4 < = A  .7.h.f.h.h.h.m.h.m.k.f.z.t 6 t ^.dXKXDXDXDXBXGXBXmXDXxXDXDXDXDXDXDXDXDX",
"DXDXDXDXDXDXDXDXDXDXDXDXDXDXDXNXNXhXcXP.*XgXtX*.< < n ; * X.j.d.h.@.m.O.m.@.@.O.9 e U.GXxXxXDXzXGXBXDXDXjXmXDXjXDXDXDXDXDXDXDXDX",
"DXDXDXDXDXDXDXDXDXDXDXDXDXDXDXNXcXgXhX .$ p.=X%Xu.L D n ; * 3 0 o.o.o.o.+...} } 2.`.tXgXhXGXNXnXDXDXDXDXDXDXDXDXDXDXDXDXDXDXDXDX",
"DXDXDXDXDXDXDXDXDXDXDXDXDXDXDXNX XS &Xa.y.XXt.t.y.D M n A A ; 1 4 q +...} S P | a.<.i.rXcXBXJXmXnXDXDXDXDXDXDXDXDXDXDXDXDXDXDXDX",
"DXDXDXDXDXDXDXDXDXDXDXDXDXDXDXNX X> < s.XXr.[ B c L 1 1 1 : M = S P  .#.$.#.$.$.>.,. .0.fXzXDXnXDXDXDXDXDXDXDXDXDXDXDXDXDXDXDXDX",
"DXDXDXDXDXDXDXDXDXDXDXDXDXDXDXvXgXJ y.u.) E N H A n 2 | 1.J m _ M M D K { [ { _ G >.' .. XhXDXmXnXDXDXDXDXDXDXDXDXDXDXDXDXDXDXDX",
"DXDXDXDXDXDXDXDXDXDXDXDXDXDXDXNXfX;Xy._ ~ B W C $ | &X;X$Xa.: b E E E / / ) ] ] ] _ P | 4.cXDXDXDXDXDXDXDXDXDXDXDXDXDXDXDXDXDXDX",
"DXDXDXDXDXDXDXDXDXDXDXDXDXDXDXvXfX5.L C W W ~ - $.rXrX Xq.p.y.b Y T T U R Q ( ) ] C A J ..gXBXDXDXDXDXDXDXDXDXDXDXDXDXDXDXDXDXDX",
"DXDXDXDXDXDXDXDXDXDXDXDXDXDXDXvX:XI n m H b B y.-XrX4.M.`.p.s.H W ! T R E E E E _ K n < *.cXNXDXDXDXDXDXDXDXDXDXDXDXDXDXDXDXDXDX",
"DXDXDXDXDXDXDXDXDXDXDXDXDXDXDXvX&X1 D M - M u.=X-X`.`.D.q.`.8.a.Z Y E E Y B B C K C $ > S.vXvXBXDXDXDXDXDXDXDXDXDXDXDXDXDXDXDXDX",
"DXDXDXDXDXDXDXDXDXDXDXDXDXDXDXcX`.: 1 * 3 [.$X>X'.q.H.Z.H.Z.w.0.<.b - G M n m : : :.* % n.hXBXDXDXDXDXDXDXDXDXDXDXDXDXDXDXDXDXDX",
"DXDXDXDXDXDXDXDXDXDXDXDXDXDXDXvX$X# $ 3 {.oX*X+X`.q.p.q.Z.Z.n.4.[.,.: = * > * * J _.6.*.=.iXBXDXDXDXDXDXDXDXDXDXDXDXDXDXDXDXDXDX",
"DXDXDXDXDXDXDXDXDXDXDXDXDXDXDXvX;X3 # %.oXP.oXH.H.q.q.q.Z.C.;.-.A.`.3.q > # # 3 6.4.*.=.0 pXNXjXDXDXDXDXDXDXDXDXDXDXDXDXDXDXDXDX",
"DXDXDXDXDXDXDXDXDXDXDXDXDXDXDXNXfX+X*.|.B.OXG.Z.H.p.q.q.Z.H.;.-.C.H.'.oXF.j.=.n.=.7.-.%.&.cXDXJXDXDXDXDXDXDXDXDXDXDXDXDXDXDXDXDX",
"DXDXDXDXDXDXDXDXDXDXDXDXDXDXDXNXvXcXhX#XB.oXG.N.w.A.q.q.Z.Z.%.-.F.n.F.@XOXP.B.g.&.B.;.w OXmXmXBXDXDXDXDXDXDXDXDXDXDXDXDXDXDXDXDX",
"DXDXDXDXDXDXDXDXDXDXDXDXDXDXDXDXDXzXNX.Xn.G.S.V.q.A.q.A.H.N.*.N.F.F.OX5XP.B.x.&.m.0 0 k.hXDXmXmXnXDXDXDXDXDXDXDXDXDXDXDXDXDXDXDX",
"DXDXDXDXDXDXDXDXDXDXDXDXDXDXDXDXnXmXxXOXn.'.V.`.A.A.H.A.`.3.e.H.N.N.F.P.P.B.j.&.;.o.P.BXBXJXnXnXDXDXDXDXDXDXDXDXDXDXDXDXDXDXDXDX",
"DXDXDXDXDXDXDXDXDXDXDXDXDXDXGXmXlXmXDXqXC.V.w.q.A.w.A.8.H.*.e.H.Z.D.B.G.B.l.&.j.O.pXvXzXmXBXlXnXnXDXDXDXDXDXDXDXDXDXDXDXDXDXDXDX",
"DXDXDXDXDXDXDXDXDXDXDXDXDXDXDXnXlXlXkXcXC.N.A.w.`.8.8.G.-.X.N.Z.4.w.8.*.&.&.y w I.zXDXBXDXkXkXnXDXDXDXDXDXDXDXDXDXDXDXDXDXDXDXDX",
"DXDXDXDXDXDXDXDXDXDXDXDXDXDXDXnXlXdXDXvXwX-.=.V.w.8.H.8.%.=.N.n.4.%.%.*.&.y w d.KXDXDXBXDXNXnXkXDXDXDXDXDXDXDXDXDXDXDXDXDXDXDXDX",
"DXDXDXDXDXDXDXDXDXDXDXDXDXDXDXnXlXdXlXgXvXG.=.`.`.`.H.*.X.+.=.7.=.%.y y 9 9 v.dXnXDXxXDXDXDXDXBXDXDXDXDXDXDXDXDXDXDXDXDXDXDXDXDX",
"DXDXDXDXDXDXDXDXDXDXDXDXDXDXDXnXlXlXBXzXvXtXj.=.4.-.%.o.o.o.} 0 9 9 e e y f.L.7XKXnXGXGXGXBXDXxXDXDXDXDXDXDXDXDXDXDXDXDXDXDXDXDX",
"DXDXDXDXDXDXDXDXDXDXDXDXDXDXDXDXkXnXDXNXzXBXJ.9 l.w 5 9 j.n.m.m.j.l.a a f.c.s e ~.JXmXGXGXxXGXDXDXDXDXDXDXDXDXDXDXDXDXDXDXDXDXDX",
"DXDXDXDXDXDXDXDXDXDXDXDXDXDXDXDXDXjXNXDXvXGX<Xa 9 a c.~.lXDXnXBXvXlXdX7X(.~.~.~.!.xXxXxXGXDXGXDXDXDXDXDXDXDXDXDXDXDXDXDXDXDXDXDX",
"DXDXDXDXDXDXDXDXDXDXDXDXDXDXDXDXNXBXDXzXDXlX8XL./.(.0X9X9X0X0X9XlXsXaXsXsXaXaXlXsXnXGXGXGXxXmXjXDXDXDXDXDXDXDXDXDXDXDXDXDXDXDXDX",
"DXDXDXDXDXDXDXDXDXDXDXDXDXDXDXDXNXDXBXxXmXlX8XY.b.f k k Y.Q.).9XsXkXlXlXsXsXlXsXmXxXxXGXGXBXNXnXDXDXDXDXDXDXDXDXDXDXDXDXDXDXDXDX",
"DXDXDXDXDXDXDXDXDXDXDXDXDXDXDXNXNXNXDXGXmXlXaX0Xb.f u u k h f Q.lXDXDXnXlXlXlXnXnXDXDXDXDXNXnXBXnXDXDXDXDXDXDXDXDXDXDXDXDXDXDXDX",
"DXDXDXDXDXDXDXDXDXDXDXDXDXDXDXDXNXNXNXGXGXlXlX9X9X).Q.h h d r f.DXDXGXDXnXnXnXDXDXDXDXNXBXvXBXnXNXDXDXDXDXDXDXDXDXDXDXDXDXDXDXDX",
"DXDXDXDXDXDXDXDXDXDXDXDXDXDXDXDXDXDXGXGXDXGXlXlXaXaXaXaXaX0X1X8XDXDXGXDXDXDXDXNXNXNXNXNXBXBXkXkXnXDXDXDXDXDXDXDXDXDXDXDXDXDXDXDX",
"DXDXDXDXDXDXDXDXDXDXDXDXDXDXDXDXDXDXDXDXGXGXGXGXJXJXlXxXxXxXxXxXGXGXDXDXDXNXNXDXNXNXNXvXkXnXkXnXDXDXDXDXDXDXDXDXDXDXDXDXDXDXDXDX",
"DXDXDXDXDXDXDXDXDXDXDXDXDXDXDXDXGXnXDXDXGXGXBXDXnXDXDXGXGXGXxXGXGXDXDXDXDXnXDXNXNXNXDXNXDXBXkXlXnXDXDXDXDXDXDXDXDXDXDXDXDXDXDXDX",
"DXDXDXDXDXDXDXDXDXDXDXDXDXDXDXnXlXmXDXDXDXNXDXnXBXvXDXDXGXGXxXxXGXDXDXnXnXBXnXnXDXDXDXDXDXDXnXBXDXDXDXDXDXDXDXDXDXDXDXDXDXDXDXDX",
"DXDXDXDXDXDXDXDXDXDXDXDXDXDXDXDXGXmXGXDXNXNXBXvXvXvXkXkXkXlXnXGXDXmXnXnXlXlXlXDXDXDXDXDXDXDXnXnXnXDXDXDXDXDXDXDXDXDXDXDXDXDXDXDX",
"DXDXDXDXDXDXDXDXDXDXDXDXDXDXDXnXmXmXmXNXNXvXBXvXvXkXlXlXkXsXlXsXnXnXlXlXlXlXlXnXGXDXGXDXDXDXDXnXDXDXDXDXDXDXDXDXDXDXDXDXDXDXDXDX"
};
