/* XPM */
static char *_5e432cf22ec4a7aebeec73957e30cdeMj2OXPrqrkC5i8TD[] = {
/* columns rows colors chars-per-pixel */
"64 64 169 2 ",
"   c None",
".  c #A50F1F",
"X  c #A30F20",
"o  c #A31423",
"O  c #AB1623",
"+  c #A51925",
"@  c #AD1925",
"#  c #AB1E2C",
"$  c #B31C26",
"%  c #B41E29",
"&  c #AD222D",
"*  c #B3222C",
"=  c #BB222C",
"-  c #B62831",
";  c #BB2A32",
":  c #C0272E",
">  c #C22A2F",
",  c #C02730",
"<  c #C42A31",
"1  c #C92F35",
"2  c #C53036",
"3  c #CE3336",
"4  c #C03238",
"5  c #CD363A",
"6  c #CE383C",
"7  c #D13537",
"8  c #D63A37",
"9  c #D93E37",
"0  c #D13538",
"q  c #D33A39",
"w  c #D83D38",
"e  c #AA6527",
"r  c #A7672F",
"t  c #AB652A",
"y  c #B3652C",
"u  c #BB652E",
"i  c #B7692D",
"p  c #A76932",
"a  c #DC4237",
"s  c #DD4832",
"d  c #D24339",
"f  c #DE4439",
"g  c #E04737",
"h  c #E24A37",
"j  c #E44C39",
"k  c #EC5536",
"l  c #E45F35",
"z  c #EC5C36",
"x  c #EA5338",
"c  c #EB5939",
"v  c #F15C36",
"b  c #F25C39",
"n  c #C36431",
"m  c #CD6435",
"M  c #C66933",
"N  c #CF6935",
"B  c #CC6638",
"V  c #CE6C3C",
"C  c #D16435",
"Z  c #DA6235",
"A  c #D36A37",
"S  c #D06638",
"D  c #D56C39",
"F  c #D5713A",
"G  c #DA723C",
"H  c #D77F3F",
"J  c #DC7A3E",
"K  c #E06537",
"L  c #EF6D3C",
"P  c #F06039",
"I  c #F06B3C",
"U  c #EF723E",
"Y  c #E1793F",
"T  c #D13F40",
"R  c #D75C48",
"E  c #D85D48",
"W  c #D8664D",
"Q  c #DD7740",
"!  c #D47849",
"~  c #C3645B",
"^  c #E36945",
"/  c #EB6840",
"(  c #E77547",
")  c #EE7241",
"_  c #E27D42",
"`  c #EF7842",
"'  c #EC7A48",
"]  c #F17943",
"[  c #C46D61",
"{  c #CF7466",
"}  c #DC7566",
"|  c #DA823D",
" . c #DE893E",
".. c #DD8340",
"X. c #E58345",
"o. c #E88647",
"O. c #E68C45",
"+. c #E98A47",
"@. c #EA864A",
"#. c #EC8C4B",
"$. c #F18548",
"%. c #F18C4A",
"&. c #E79547",
"*. c #EF934D",
"=. c #EE9B4C",
"-. c #F0914D",
";. c #F0984D",
":. c #ED9352",
">. c #F09651",
",. c #F09952",
"<. c #F19D59",
"1. c #EBAB47",
"2. c #E5A14B",
"3. c #EDA44A",
"4. c #EBAB4A",
"5. c #EDAE54",
"6. c #F2A359",
"7. c #F0AB58",
"8. c #EEB155",
"9. c #EEB259",
"0. c #F0B35C",
"q. c #DF937D",
"w. c #F4AB65",
"e. c #F4AE69",
"r. c #EAB566",
"t. c #ECB76D",
"y. c #F2B663",
"u. c #F3B866",
"i. c #F5B36A",
"p. c #F4BA6B",
"a. c #EBB971",
"s. c #ECBE7E",
"d. c #F7BE75",
"f. c #F8BE77",
"g. c #F7BF78",
"h. c #F7C076",
"j. c #F5C079",
"k. c #F5C07D",
"l. c #F5C17F",
"z. c #E19A81",
"x. c #E3A387",
"c. c #E3A489",
"v. c #EAC187",
"b. c #EBC38D",
"n. c #EDC38B",
"m. c #F3C281",
"M. c #F3C386",
"N. c #F4C281",
"B. c #F3C489",
"V. c #F1C58A",
"C. c #F1C58E",
"Z. c #EAC797",
"A. c #EFC797",
"S. c #E9C195",
"D. c #EBC39B",
"F. c #EFC89A",
"G. c #EDCA9E",
"H. c #F1C691",
"J. c #F0C795",
"K. c #F0C895",
"L. c #F1C89A",
"P. c #EACAA2",
"I. c #EBCBA7",
"U. c #EACBA4",
"Y. c #ECCBA5",
"T. c #EBCCA7",
"R. c #EDCAA3",
"E. c #EACDAA",
"W. c #EDCCAA",
/* pixels */
"                                                                                                                                ",
"                                                                                                                                ",
"                                                                                                                                ",
"                                                                                                                                ",
"                                                              P.9.4.r.Y.Y.Y.I.I.Y.W.                                            ",
"                                                        m.j.m.M.8.1.9.n.Y.E.Y.Y.C.B.H.                                          ",
"                                                      K.j.d.h.d.9.9.y.h.G.R.F.K.j.d.N.J.                                        ",
"                                                Y.V.d.h.d.h.d.d.g.g.h.k.F.V.d.d.d.d.d.j.G.a.5.                                  ",
"                                              Y.M.j.d.h.d.d.d.h.g.d.v.K.M.j.h.d.d.h.d.d.g.H.Z.                                  ",
"                  -                           a.d.g.d.d.y.0.y.d.g.d.j.M.f.d.d.h.h.d.d.h.d.H.W.E.E.                              ",
"                6 , #                         4.y.p.p.u.4.1.5.u.u.p.p.h.d.h.d.d.d.d.h.d.d.B.L.J.b.                              ",
"        T     3 0 0 1 O                     v.4.4.4.4.4.4.4.4.4.4.4.8.d.d.h.d.d.d.d.d.d.d.f.d.d.8.s.P.                          ",
"      6 7 } z.7 0 0 5 3 @                   8.4.1.4.4.1.1.1.3.*.1.1.8.d.d.d.d.g.h.d.p.8.d.0.0.d.d.y.t.Y.                        ",
"      3 = { x.7 0 0 0 0 < *                 1.=.4.4.3.=.=.=.=.-.;.3.8.d.f.f.p.y.d.h.u.4.8.0.u.d.9.4.8.t.5.v.                    ",
"      6 O [ c.0 0 0 0 0 q = o               =.*.=.3.3.-.%.>.-.-.-.3.8.d.p.d.i.4.0.d.p.7.8.p.h.d.9.4.4.4.4.a.b.                  ",
"      3 @ ~ q.3 0 0 0 0 0 = +               -.-.*.*.-.*.-.-.-.-.>.=.8.p.5.y.u.1.4.y.p.d.f.h.d.h.j.9.1.4.4.4.r.D.                ",
"      6 @ ; T 7 0 0 0 0 0 3 < +             -.*.-.-.-.-.#.-.*.-.%.3.4.5.4.4.3.;.-.3.8.8.d.h.d.d.h.9.1.4.4.4.4.<.>.              ",
"      6 @ = 0 7 0 0 7 0 0 0 < o             -.-.-.-.-.-.-.-.%.-.>.3.4.4.4.3.;.>.;.1.1.4.p.d.h.h.h.p.y.y.4.4.3.%.>.              ",
"      3 @ % 0 7 0 0 0 0 0 0 3 %             ;.-.-.-.-.*.-.-.-.-.%.3.4.4.3.,.%.*.3.1.4.4.y.p.h.d.d.h.h.d.0.4.3.;.%.:.            ",
"      6 @ = 0 0 0 0 7 0 0 0 7 3 @           3.*.-.:.%.-.-.-.-.-.>.=.4.3.*.-.-.-.-.3.4.4.4.u.d.d.d.d.h.d.h.0.4.1.;.>.:.          ",
"        o = 0 0 0 0 0 0 0 0 0 3 @             3.>.%.-.-.-.-.%.>.-.3.3.;.-.-.-.*.3.4.4.4.p.h.h.h.h.d.d.d.h.8.1.4.1.=.:.          ",
"        o O = 3 7 0 0 0 0 0 7 3 @             4.;.-.-.-.-.X._ %.-.*.*.-.-.-.-.-.,.3.4.4.p.h.h.d.h.d.h.d.h.8.1.4.4.3.=.:.        ",
"        * O @ 3 0 0 0 0 0 0 0 7 = &           4.O.#.-.%.@.G D X.*.#.-.*.X.#.-.-.%.3.4.0.p.h.d.h.d.d.h.d.h.8.1.4.4.4.3.-.        ",
"        6 = O 3 0 0 0 0 7 0 0 0 0 = o         5.F _ *.#.D C C A X.#.#.#.D _ >.%.;.3.8.d.d.d.h.h.h.d.d.h.d.8.4.4.4.4.3.:.        ",
"        6 = @ 3 3 0 0 0 0 0 0 0 0 % O         D.! _ o.A m C C C D C A C C _ -.;.3.4.4.8.p.j.h.h.d.d.d.p.8.4.4.4.4.1.3.-.        ",
"          4 < q 0 0 0 0 0 0 0 0 0 = o           ! C G m C C C l K Z Z K C _ ;.3.1.4.4.4.8.p.h.h.j.j.p.9.4.4.4.4.4.4.3.>.        ",
"            3 < 3 0 0 0 0 0 0 0 0 = o           H D m C C m Z v b l Z v Z _ =.1.4.4.4.4.1.9.u.u.i.d.p.1.4.4.4.4.4.1.&.X.        ",
"            < O < 0 0 0 0 0 0 0 0 = o           5.| m Z Z C Z v b K Z l A X.;.3.4.1.4.4.4.4.4.4.4.0.u.4.4.4.4.4.1.=.X.C         ",
"              o 1 0 0 0 0 0 0 0 0 = o             V Z l z l v v v ` #.  2.=.-.*.3.4.4.4.4.4.4.4.4.4.4.4.1.4.4.4.4.=.X.N         ",
"              ; % < 0 0 0 0 0 3 = O o                                   4.=.-.*.3.4.4.4.4.4.4.4.1.4.4.;.=.=.=.=.=.*.X.N 2.      ",
"              6 = < 3 0 0 1 : = O X o                                     =.-.-.3.3.3.3.3.3.3.=.4.3.;.;.%.>.-.-.*.>.X.A =.      ",
"                6 3 3 7 3 = O O X X o                                     #.#.-.%.*.#.*.*.*.,.,.1.=.-.;.*.;.%.-.-.%.Q N #.      ",
"                  # % 3 $ = 3 1 @ X o                                     V J %.-.-.-.-.-.w.d.i.5.3.1.4.3.;.>.>.>.Y n i #.      ",
"                    = % X = 0 0 < % + 6                                         ) I I U %.e.f.d.p.8.1.4.4.=.%.#.J D n t         ",
"                    2 % % > 0 0 0 < = 5                                         ) I I v %.e.f.f.j.9.1.4.1.=.-.#.C m n t         ",
"                      0 0 0 0 0 0 7 3 3                                 4.4.4.5.;.-.$.I %.i.f.d.d.0.5.4.1.;.-.#.D C n t         ",
"                      0 0 0 0 0 0 7 < O O       6             5.4.,.*.*.*.3.8.p.5.1.=.>.i.d.h.d.d.d.y.1.;.-.%.#.A C n t         ",
"                      0 0 0 0 7 0 < @ X = 2 6 6 3 6 6 6 0 5 W i.p.6.%.-.:.-.6.f.p.5.4.3.8.9.9.9.8.0.8.4.;.-.o.G C n y r         ",
"                      0 7 0 7 7 1 % % % 3 0 0 0 0 0 7 7 7 3 R d.p.5.=.=.;.-.<.d.g.u.8.1.1.1.4.4.1.1.3.;.-.#.J C n y t t         ",
"                      6 7 7 7 1 % , 0 0 0 0 0 0 0 0 0 7 7 3 R a.9.4.1.3.*.%.<.d.g.d.p.4.1.4.3.4.3.1.3.-.#.G C n t t t r         ",
"                        6 0 < $ g g 7 7 7 0 0 0 0 0 7 0 0 7 R d.d.9.3.*.-.-.<.d.d.d.p.1.4.3.*.-.-.;.;.#.D C n y t t t t         ",
"                        5 < % > k k g 7 0 0 0 0 0 0 0 0 7 3 R d.d.9.3.-.-.=.8.d.d.y.8.4.4.=.-.-.-.-.-.#.A n y t t t r           ",
"                          ; = q k v k 7 0 0 7 0 0 0 0 0 0 7 R i.p.2.O.-.-.=.8.h.p.5.1.1.4.=.%.-.X.X.X.Y M y e t t t t           ",
"                            0 0 j v k 8 0 0 0 7 0 0 0 0 0 7 R d.5.| G -.;.3.8.p.4.4.1.4.3.=.;.#.A C C M y t t t t t             ",
"                            q 0 0 j v k 9 0 7 0 0 0 0 0 0 0 E p.5.| G -.3.4.4.4.4.1.4.1.;.=.3.#.A C C m y e e t t               ",
"                              3 0 q g v k 9 0 0 0 0 0 q ^ ( @.5.|  .&.-.*.=.*.=.4.4.3.;.-.=.+.G C C M y y t t t t               ",
"                              0 0 7 9 v v x a 0 0 0 0 q @.@.O.1...+.;.-.*.-.*.*.3.4.3.-.-.-.X.C C C n e t t t t r               ",
"                              0 0 0 9 k k v k 8 q 0 7 q ' _ J 3.;.-.;.-.*.%.-.*.3.3.3.-.#.#._ C C C n e t t t r                 ",
"                                T 3 7 0 0 j b k k f 0 q k ] *.:.*.-.-.-.-.-.-.%.-.-.;.#.G C C C C C n e t t t                   ",
"                                  T 0 0 7 w w f v k x x v ] -.%.%.-.*.%.-._ G G G X.-.%.D C n y y y y t t t r                   ",
"                                    0 0 7 0 7 7 g k b b v ] -.-.:.-.-.*.-.J n n m G _ _ C m u e t e t e t r                     ",
"                                    5 5 0 0 0 0 7 g k b v ] -.-.-.-.#.#.#.G n y n m m C m u t t t t t t t                       ",
"                                        0 3 7 0 0 0 f b v ` -.-.-.-.o.A C u t t t n C m m u e t e t t r                         ",
"                                          T 0 7 0 0 0 f k ` -.-.-.-.X.C Z u t t t n C C C u t e t r                             ",
"                                            T 5 0 0 0 q / $.#.X.%.@.J C n y t t t n C m n y t t r                               ",
"                                              0 0 0 6 d ' #.#.D X.Q m n t t e t t n C n y t t r                                 ",
"                                                      m C _ *.#.G m n t t t t t t n n y t t r                                   ",
"                                                      m C A G D u y y t t t t e                                                 ",
"                                                        C m m m y e t t e r t                                                   ",
"                                                        B S D N y r t t t                                                       ",
"                                                                                                                                ",
"                                                                                                                                ",
"                                                                                                                                ",
"                                                                                                                                "
};
