/* XPM */
static char *_0ea209826cf440dfdce5b33deee6074imfxWiRAZaCnVEWx[] = {
/* columns rows colors chars-per-pixel */
"64 64 219 2 ",
"   c None",
".  c #020201",
"X  c #0B0100",
"o  c #030A05",
"O  c #0C0D0B",
"+  c #08080A",
"@  c #130000",
"#  c #1C0101",
"$  c #140B07",
"%  c #011506",
"&  c #181A0D",
"*  c #120C12",
"=  c #1F0C10",
"-  c #181A1A",
";  c #0D0C11",
":  c #240000",
">  c #2C0000",
",  c #290C0A",
"<  c #330101",
"1  c #3A0001",
"2  c #38070C",
"3  c #3C110B",
"4  c #2B1719",
"5  c #391617",
"6  c #2B1311",
"7  c #03200E",
"8  c #17231A",
"9  c #0F2815",
"0  c #25251C",
"q  c #1C2C26",
"w  c #232424",
"e  c #252828",
"r  c #2E3A39",
"t  c #35393A",
"y  c #420000",
"u  c #490100",
"i  c #40070E",
"p  c #4A0F0B",
"a  c #540001",
"s  c #5C0100",
"d  c #560B06",
"f  c #420A11",
"g  c #570B12",
"h  c #541911",
"j  c #650003",
"k  c #6A0201",
"l  c #62030C",
"z  c #670D0D",
"x  c #760406",
"c  c #6C1008",
"v  c #6A0C16",
"b  c #7B0D15",
"n  c #65161B",
"m  c #771314",
"M  c #74201E",
"N  c #701D27",
"B  c #4D2C27",
"V  c #682327",
"C  c #712120",
"Z  c #623937",
"A  c #464B49",
"S  c #564A47",
"D  c #525452",
"F  c #545B57",
"G  c #5D5A5A",
"H  c #585957",
"J  c #565450",
"K  c #6A4341",
"L  c #635D5A",
"P  c #66534C",
"I  c #5A615C",
"U  c #7C635E",
"Y  c #596364",
"T  c #636664",
"R  c #696968",
"E  c #6D7676",
"W  c #7B7B7A",
"Q  c #797777",
"!  c #73706C",
"~  c #850000",
"^  c #8E0102",
"/  c #8A0904",
"(  c #8E090A",
")  c #880809",
"_  c #940304",
"`  c #9B0203",
"'  c #940209",
"]  c #9F0909",
"[  c #9D0407",
"{  c #850C14",
"}  c #970514",
"|  c #8B131C",
" . c #81131E",
".. c #97141B",
"X. c #A40103",
"o. c #AC0101",
"O. c #A6020A",
"+. c #A7060B",
"@. c #B30001",
"#. c #BA0000",
"$. c #B4000E",
"%. c #AB0D18",
"&. c #A61419",
"*. c #B6101E",
"=. c #8E1524",
"-. c #AB1527",
";. c #BB1724",
":. c #872021",
">. c #B92533",
",. c #C40101",
"<. c #D40E05",
"1. c #D90A06",
"2. c #D5170B",
"3. c #C90B16",
"4. c #DB0312",
"5. c #D60C18",
"6. c #D5131B",
"7. c #D81414",
"8. c #C21311",
"9. c #EB040B",
"0. c #E30B0B",
"q. c #E80405",
"w. c #F20000",
"e. c #F90302",
"r. c #F10900",
"t. c #FE0C02",
"y. c #F7060B",
"u. c #E60813",
"i. c #F80514",
"p. c #FE171D",
"a. c #F11105",
"s. c #C71722",
"d. c #D41626",
"f. c #CE1327",
"g. c #E91724",
"h. c #F11328",
"j. c #D52835",
"k. c #DD313D",
"l. c #DE2128",
"z. c #E9302E",
"x. c #FF2A31",
"c. c #E6353D",
"v. c #FA3A39",
"b. c #8B493D",
"n. c #F24330",
"m. c #D13341",
"M. c #F02F40",
"N. c #ED3D48",
"B. c #9D4B57",
"V. c #8E7E6F",
"C. c #946369",
"Z. c #FF544D",
"A. c #FA4C54",
"S. c #F74F4A",
"D. c #FF6357",
"F. c #FF5860",
"G. c #FF6E74",
"H. c #F77473",
"J. c #F26C67",
"K. c #7F8070",
"L. c #83837F",
"P. c #978B75",
"I. c #F38576",
"U. c #867A82",
"Y. c #FE7980",
"T. c #778383",
"R. c #888686",
"E. c #88938C",
"W. c #9A8F91",
"Q. c #B08C8E",
"!. c #AD9B8F",
"~. c #A59894",
"^. c #BC8D93",
"/. c #B7A69F",
"(. c #A19FA4",
"). c #9AA4A5",
"_. c #A6A4AA",
"`. c #B9B2AE",
"'. c #B0AEB1",
"]. c #AEB4B4",
"[. c #B4B2B3",
"{. c #BCBBBC",
"}. c #B6BAB8",
"|. c #B3A4A1",
" X c #FF8E93",
".X c #FE8D87",
"XX c #FFA99C",
"oX c #C1AFAB",
"OX c #C5B0AF",
"+X c #C5AFB1",
"@X c #C5BDBA",
"#X c #CEB4B5",
"$X c #D7BDBC",
"%X c #BCC0BF",
"&X c #C3C2BD",
"*X c #FFC9B5",
"=X c #BFBFC1",
"-X c #BBC4C3",
";X c #C4C3C3",
":X c #C7C8CA",
">X c #D2C7C5",
",X c #CAD1CE",
"<X c #D1CCD0",
"1X c #D3D2CF",
"2X c #E3DDDF",
"3X c #FFD4D2",
"4X c #E1E0DC",
"5X c #D9E2E2",
"6X c #D8FAEC",
"7X c #E3E3E4",
"8X c #FCF2E5",
"9X c #F8EFF0",
"0X c #ECFFFD",
"qX c #E2FDF3",
"wX c #FEF5FE",
"eX c #F4FDFD",
"rX c #FDFCFE",
"tX c #F8F6F6",
"yX c #ECF0F0",
/* pixels */
"                                                                                                                                ",
"                                                                                                                                ",
"                                                                                                                                ",
"                                                                                                                                ",
"                                                                                                                                ",
"                                                                                                                                ",
"                                                                                                                                ",
"                                                                                                                                ",
"                                                                                                                                ",
"                                                                                                                                ",
"                                                                                                                                ",
"                                                                                                                                ",
"                                                                                                                                ",
"                                                                                                                                ",
"                                                                                                                                ",
"                                                    T H L L G L L H G                                                           ",
"                                                    . X X X . X . X $ *                                                         ",
"                                                  !.> < 1 1 2 > < : > 5                                                         ",
"                                        Q O & $ X h -.f...x b b b  . .v i # O O -                                               ",
"                                        P.# : > > j f.5.+.[ O.O.' ' } | y : @ X @                                               ",
"                                    K.P.b.c ( _ ^ %.A.N.s.@.,.#.O.` X.[ x z p f f C.                                            ",
"                                    o @ j *.6.5.d.m.Y.G.c.3.7.#.X.o.@.o.[ ) c C n > #                                           ",
"                                    % X / l.4.5.3.m.Y.H.j.8.0.#.o.X.o.o.o.+.( m M > # S                                         ",
"                                    % # ~ 7.u.A.F. X3X3X.XZ.S.2.2.<.<.<.#.o.` ) c < # P                                         ",
"                                    6 > ^ 2.2.D.H.XX8X8X.XH.Z.1.u.r.q.0.,.o.` / c y # P                                         ",
"                                  W.g k @.<.2.n.n.I.*X*XH.A.v.1.y.y.i.q.,.@.X./ { a y Z |.                                      ",
"                              ! . 2 -.g.p.r.r.q.1.z.J.J.l.4.i.i.9.i.p.u.#.X.] _ [ ' | g @ .                                     ",
"                              D . 1 f.i.w.w.t.t.t.x.J.H.c.d.d.6.6.3.6.5.o.` ` ` $.O.-.v : X                                     ",
"                              J X u 6.i.e.t.e.e.w.9.h.M.~ s s a c / +.+.` [ ] X.o.X.' l : = ;X                                  ",
"                              L X u *.u.0.a.w.t.y.u.g.;.y # @ @ > a  .../ _ ] ` O.*...v # X {.                                  ",
"                              H . 3 :.&.*.1.r.w.9.3.&.m K S t w B h v b ( _ ' ' x k d 3 # . {.                                  ",
"                              G . X > u _ 8.g.u.g.O.u < #XtXyX-X>XK > u b | { { m 1 : @ . . ;XrX                                ",
"                              Y . . : 1 k >.j.s.;...y : $XrX5X=X}.S # < V N n N V # X X . o <XrX                                ",
"                              T o - ~.^.B.l j x b d < # ~.7X-X].:XD X @ 2 f 2 2 < U W.H . . :XtX                                ",
"                              D . e 9XtXQ.# # : @ X . . E.1X].:X,XA . # # : : : # /.1XR.. . ;XrX                                ",
"                                o r   9X! $ 0 & 8 9 7 q E.-X(._.].D * = 6 6 5 , & !.}.! & - =XtX                                ",
"                                    ; . W.rXyXeXqX6X0XqXr . - * + E =X@X+X+X+X+X`.0 . I eXyXrX                                  ",
"                                    + + Q rXeXeXeX0X0X0Xt . * . . T.;X{.@X>X#X@X`.8 % F eX                                      ",
"                                    . ; U.wXwXwXwXrXtXtX_.Q Q R.E ).{.{.{.`.'.&X}.8 . F rX                                      ",
"                                    * . U.  wXwXwXrXrXrXrXrXrXrXeX5X-X[.{.;X&X[.}.8 o I rX                                      ",
"                                    O . R.                tX8X9XwX1X=X].{.'.{.{.].w . T rX                                      ",
"                                        W e w r 8 Y -X      &X&X:X[.[.'.w w e - w {.7X5XrX                                      ",
"                                          . . . . A     ;X&X&X1X;X:X<X=X. . . . . 7XrX                                          ",
"                                          D F F I R R.W L.L.W W Q U.U.T ! G G R H 2X                                            ",
"                                                    * . . + + . . . . -       rXrXrX                                            ",
"                                                    @ X . . . . + . . w                                                         ",
"                                                                                                                                ",
"                                                                                                                                ",
"                                                                                                                                ",
"                                                                                                                                ",
"                                                                                                                                ",
"                                                                                                                                ",
"                                                                                                                                ",
"                                                                                                                                ",
"                                                                                                                                ",
"                                                                                                                                ",
"                                                                                                                                ",
"                                                                                                                                ",
"                                                                                                                                ",
"                                                                                                                                ",
"                                                                                                                                ",
"                                                                                                                                ",
"                                                                                                                                ",
"                                                                                                                                "
};
