/* XPM */
static char *be066110fa374a35e6abf589100c30c9n7qlvNKHX9cYWV9u[] = {
/* columns rows colors chars-per-pixel */
"64 64 170 2 ",
"   c None",
".  c #010310",
"X  c #152837",
"o  c #514D34",
"O  c #19384D",
"+  c #0F3A5D",
"@  c #1F3B58",
"#  c #263548",
"$  c #003561",
"%  c #1C435E",
"&  c #274056",
"*  c #384957",
"=  c #10436E",
"-  c #0E4E7A",
";  c #36586A",
":  c #2A4F75",
">  c #245275",
",  c #2F5878",
"<  c #29607F",
"1  c #35627F",
"2  c #495F5D",
"3  c #675841",
"4  c #6B7246",
"5  c #63665F",
"6  c #455768",
"7  c #465F73",
"8  c #4B657D",
"9  c #46617E",
"0  c #656E65",
"q  c #6A706E",
"w  c #67707F",
"e  c #657A7F",
"r  c #777D7A",
"t  c #837062",
"y  c #7A8864",
"u  c #8C8A63",
"i  c #1A5889",
"p  c #175883",
"a  c #1B6695",
"s  c #366E8B",
"d  c #396788",
"f  c #2B6897",
"g  c #336C99",
"h  c #29729B",
"j  c #36749E",
"k  c #1A6FA6",
"l  c #1C6FB5",
"z  c #2A72A3",
"x  c #2875AD",
"c  c #2C7DB4",
"v  c #466A89",
"b  c #47788A",
"n  c #557687",
"m  c #46799D",
"M  c #5A7F92",
"N  c #7F6E81",
"B  c #1E7DC1",
"V  c #3782AC",
"C  c #3784B5",
"Z  c #4F8398",
"A  c #5A8D97",
"S  c #778B8C",
"D  c #668A9A",
"F  c #7A9398",
"G  c #4584AA",
"H  c #5E8DA1",
"J  c #4589B2",
"K  c #4982B7",
"L  c #598BB0",
"P  c #4793BE",
"I  c #5F98BE",
"U  c #6992A8",
"Y  c #789AA4",
"T  c #6E8DB6",
"R  c #7EA4AD",
"E  c #6EA9B9",
"W  c #74A9BB",
"Q  c #2988CC",
"!  c #3788CC",
"~  c #2E8BD0",
"^  c #3B8CD3",
"/  c #3F92DB",
"(  c #3594E4",
")  c #568AC6",
"_  c #4C9CD9",
"`  c #5699DF",
"'  c #648BC4",
"]  c #659CDF",
"[  c #58A2C7",
"{  c #59A1DC",
"}  c #65A6C8",
"|  c #78ABCC",
" . c #70AED5",
".. c #6CB1D2",
"X. c #7FB0D8",
"o. c #4A9AE3",
"O. c #5CA5E4",
"+. c #58A9F8",
"@. c #66ABF6",
"#. c #67B2FB",
"$. c #888D89",
"%. c #9A9B87",
"&. c #9B8997",
"*. c #8BA892",
"=. c #97B09B",
"-. c #ADAF80",
";. c #A7B68E",
":. c #889CA3",
">. c #A497A8",
",. c #95A4A9",
"<. c #9DB6A2",
"1. c #86ADB6",
"2. c #89BAB4",
"3. c #99B4BD",
"4. c #AFB6AE",
"5. c #B0B9A6",
"6. c #AABDBB",
"7. c #B4B2BD",
"8. c #C4BCBA",
"9. c #B6C5A4",
"0. c #B1D3B8",
"q. c #CADCAC",
"w. c #C3CDB4",
"e. c #8CB6CF",
"r. c #9DB4C2",
"t. c #94B4C3",
"y. c #83B8D8",
"u. c #90BEDF",
"i. c #ADB2C5",
"p. c #96C2C1",
"a. c #8AC2D4",
"s. c #91C7DA",
"d. c #96C4D8",
"f. c #A9C6CE",
"g. c #A9D1CB",
"h. c #A6CCD5",
"j. c #B9CCD6",
"k. c #88C5E8",
"l. c #94D1EA",
"z. c #84C9F0",
"x. c #9FD7F8",
"c. c #9DD9FB",
"v. c #AFCDE5",
"b. c #B4C5E1",
"n. c #ADDBEB",
"m. c #BBDBE8",
"M. c #ABD9F5",
"N. c #A5DFF6",
"B. c #ABE8F7",
"V. c #B9E8FA",
"C. c #C6DDCD",
"Z. c #D3C6D0",
"A. c #C1D5D4",
"S. c #ECD8D7",
"D. c #E7F8CB",
"F. c #D2E7E7",
"G. c #C7E1FA",
"H. c #D1E9F3",
"J. c #D4FFFF",
"K. c #DAFFFF",
"L. c #D6F5FC",
"P. c #EBE9EA",
"I. c #F2F6E6",
"U. c #E4EFF1",
"Y. c #ECFDFE",
"T. c #E8F2F1",
"R. c #FFFEF7",
"E. c #F3FEFE",
"W. c #FCFDFF",
"Q. c #F3FFF2",
/* pixels */
"                                                                                                                                ",
"                                                                                                                                ",
"                                                                                                                                ",
"                                                                                                                                ",
"                                                                                                                                ",
"                                                                                                                                ",
"                                                                                                                                ",
"                                                                                                                                ",
"                                                                                                                                ",
"                                                                                                                                ",
"                                                                                                                                ",
"                                                                                                                                ",
"                                                                                                                                ",
"                                                                                                                                ",
"                                                                                                                                ",
"                                                                                                                                ",
"                                                                                                                                ",
"                                                                                                                                ",
"                                                            d.                                                                  ",
"                                                        m g f j ' s.                                                            ",
"                                                    ) O.@.O.^ ! l x [                                                           ",
"                                                ' ] @.#.+.( ! _ ( ~ h Z                                                         ",
"                                              T ) ` o.^ ! C h a l Q P s Y                                                       ",
"                                            b.v K { _ c V } s.l.O.k P m v                                                       ",
"                                            j.e.k.z.[ ..a.K.Y.Y.J.} G L ,                                                       ",
"                                          T.3.h.e.B.N.a.L.E.P.W.Y.G.v m :                                                       ",
"                                          T.,.g.g.2.p.g.Y.7.&.Z.Y.L.8 U :                                                       ",
"                                          T.=.=.<.0.*.C.E.N N >.E.F.9 9 @                                                       ",
"                                          I.w.u D.q.;.9.I.q . i.E.H.6 # 8                                                       ",
"                                          W.I.%.u -.4 ;.Q.A.r.G.v.n 7 O                                                         ",
"                                            W.S.q 3 o 5.F.m.M.y.d + ;                                                           ",
"                                              W.  w.$.S n b j p i = %                                                           ",
"                                                    n b s p a z i $ > % O * 6                                                   ",
"                                              Y.m.M d <  .J C z - k.| >   O O N                                                 ",
"                                              Y.i.t.U | N.k.J G } c.X.d ;   X ,.                                                ",
"                                              Y.:.3.D K.M.N.J.k.l.l.k.D O   *                                                   ",
"                                              E.j.e f.  h.M.V.W E B.A ;                                                         ",
"                                                E.  F.F   1.R R A Z                                                             ",
"                                                      6.2                                                                       ",
"                                                  7.y 0 r                                                                       ",
"                                                    %.0                                                                         ",
"                                                                5                                                               ",
"                                                                                                                                ",
"                                                                                                                                ",
"                                                                                                                                ",
"                                                                                                                                ",
"                                                                                                                                ",
"                                                                                                                                ",
"                                                                                                                                ",
"                                                                                                                                ",
"                                                                                                                                ",
"                                                                                                                                ",
"                                                                                                                                ",
"                                                                                                                                ",
"                                                                                                                                ",
"                                                                                                                                ",
"                                                                                                                                ",
"                                                                                                                                ",
"                                                                                                                                ",
"                                                                                                                                ",
"                                                                                                                                ",
"                                                                                                                                ",
"                                                                                                                                ",
"                                                                                                                                "
};
