/* XPM */
static char *c4903cf5276a43558af51aae93cebf39VTSbjeMnYrT2GNn9[] = {
/* columns rows colors chars-per-pixel */
"64 64 216 2 ",
"   c None",
".  c #0A141A",
"X  c #141B1F",
"o  c #081925",
"O  c #101F28",
"+  c #1E2B33",
"@  c #14222B",
"#  c #333638",
"$  c #1A456B",
"%  c #1B4D7A",
"&  c #1D4C74",
"*  c #0C4779",
"=  c #2D4D68",
"-  c #234F75",
";  c #295378",
":  c #335573",
">  c #365A79",
",  c #31526D",
"<  c #3D607D",
"1  c #525453",
"2  c #454544",
"3  c #7C6D4A",
"4  c #626158",
"5  c #41586C",
"6  c #48667E",
"7  c #586A77",
"8  c #5D727D",
"9  c #57666D",
"0  c #65686A",
"q  c #7A7863",
"w  c #61717A",
"e  c #667376",
"r  c #777678",
"t  c #667071",
"y  c #867F73",
"u  c #6F807E",
"i  c #9C864E",
"p  c #9A895B",
"a  c #AB9558",
"s  c #B59D5A",
"d  c #B99E59",
"f  c #A18C51",
"g  c #BAA15A",
"h  c #998F6C",
"j  c #AB9A66",
"k  c #B49E64",
"l  c #A39E74",
"z  c #B9A062",
"x  c #C3A863",
"c  c #C6AD73",
"v  c #C8B37F",
"b  c #C7B06E",
"n  c #0C4E85",
"m  c #134D81",
"M  c #0C528D",
"N  c #1D5283",
"B  c #185689",
"V  c #16548A",
"C  c #0D5593",
"Z  c #0B5C9E",
"A  c #0D5898",
"S  c #125F9E",
"D  c #175A93",
"F  c #275A87",
"G  c #285E8F",
"H  c #1D619A",
"J  c #3B6588",
"K  c #24639B",
"L  c #276397",
"P  c #386892",
"I  c #0D5EA1",
"U  c #115FA2",
"Y  c #0F60A2",
"T  c #1261A4",
"R  c #1C64A3",
"E  c #1665AA",
"W  c #1B66AB",
"Q  c #1C69AD",
"!  c #1C68A7",
"~  c #1D6BB1",
"^  c #2267A3",
"/  c #2B6BA4",
"(  c #296CAD",
")  c #336FA9",
"_  c #3473A6",
"`  c #3874A8",
"'  c #226DB3",
"]  c #2671B6",
"[  c #2A75BB",
"{  c #2974B9",
"}  c #327ABD",
"|  c #3877B5",
" . c #2F72A5",
".. c #466885",
"X. c #5A738A",
"o. c #557A98",
"O. c #496E91",
"+. c #637984",
"@. c #637E89",
"#. c #647783",
"$. c #7C7F81",
"%. c #4B7FAC",
"&. c #467BA5",
"*. c #517EA7",
"=. c #357DC1",
"-. c #387FC3",
";. c #2E7AC0",
":. c #66818D",
">. c #6A828E",
",. c #74838A",
"<. c #6A8592",
"1. c #6C8A95",
"2. c #6B8999",
"3. c #7B8B94",
"4. c #738C99",
"5. c #788B95",
"6. c #78939D",
"7. c #4E80AC",
"8. c #5988A7",
"9. c #4B84B7",
"0. c #5686B5",
"q. c #5E93BB",
"w. c #638BA6",
"e. c #6E95AD",
"r. c #7696A3",
"t. c #7A9AA6",
"y. c #7B9EAB",
"u. c #7698A6",
"i. c #6B97B3",
"p. c #769CB3",
"a. c #628EB1",
"s. c #7EA2AF",
"d. c #7DA3B2",
"f. c #7FA6B9",
"g. c #3C82C4",
"h. c #4587C5",
"j. c #458AC9",
"k. c #498BC9",
"l. c #538CC3",
"z. c #4D91CB",
"x. c #5395CE",
"c. c #5F98CE",
"v. c #5B9BD4",
"b. c #5698D2",
"n. c #6A9EC9",
"m. c #66A3D6",
"M. c #65A4D9",
"N. c #6BA7D9",
"B. c #78B2DD",
"V. c #77B6E3",
"C. c #828385",
"Z. c #8B898B",
"A. c #868888",
"S. c #8E918C",
"D. c #999987",
"F. c #898D92",
"G. c #83949C",
"H. c #8E9093",
"J. c #949495",
"K. c #9A9A9B",
"L. c #979898",
"P. c #BDAD83",
"I. c #A3A39C",
"U. c #859BA5",
"Y. c #979EA2",
"T. c #89A2AD",
"R. c #80A1AE",
"E. c #9BA4AA",
"W. c #82A6B3",
"Q. c #84AAB6",
"!. c #84ABB9",
"~. c #8BACBB",
"^. c #88A4B8",
"/. c #95ABB6",
"(. c #9AB3BC",
"). c #A3A4A3",
"_. c #AEADAC",
"`. c #A5A9A9",
"'. c #B2B2AF",
"]. c #A2AEB6",
"[. c #A4B4BD",
"{. c #A7B3B8",
"}. c #B3B3B2",
"|. c #BEBCBA",
" X c #BAB9B7",
".X c #B1AEAC",
"XX c #D1BC88",
"oX c #C9BB92",
"OX c #C0BFBC",
"+X c #D8C28E",
"@X c #DACA97",
"#X c #E1CF98",
"$X c #C1C1BE",
"%X c #DFD1A6",
"&X c #EEDFA7",
"*X c #F4EAB6",
"=X c #EAE3B6",
"-X c #8DB2C3",
";X c #96B8C9",
":X c #9BBED1",
">X c #A5B9C6",
",X c #B6BEC2",
"<X c #9DC1D6",
"1X c #B8C1C6",
"2X c #A7C6D7",
"3X c #B5D1DF",
"4X c #88C2E9",
"5X c #B9D7E7",
"6X c #C4C4C2",
"7X c #CAC9C7",
"8X c #C5C9C9",
"9X c #CACAC9",
"0X c #CACACA",
"qX c #CCCCCA",
"wX c #CCCCCA",
"eX c #C6C7C6",
/* pixels */
"                                                                                                                                ",
"                                                                                                                                ",
"                                                                                                                                ",
"                                                                                                                                ",
"                                                                                                                                ",
"                                                                                                                                ",
"                                                                                                                                ",
"                                                          B.N.M.M.M.M.N.B.                                                      ",
"                                                    B.M.b.k.g.=.} } =.g.k.x.v.M.                                                ",
"                                                  m.z.g.[ ' ~ E E E E Q ' ] } h.x.m.                                            ",
"                                              N.x.=.] W T T Y I Y Y Y I U T E ' } j.v.                                          ",
"                                            m.k.[ Q T I I I I Y Y Y Y Y U U U U E ' -.z.n.                                      ",
"                                          m.j.] E I I I I I I I I Y Y Y U U Y Y Y T ~ } h.                                      ",
"                                        m.k.{ E I I I I I I I I I I I I Y Y I I I I T Q | 9.                                    ",
"                                        z.[ W I I I I I Z Z Z I I I I I I I I I I I I U ( | 0.                                  ",
"                                      x.=.~ I I I I I Z Z I Z Z Z I I Z Z I I I I I I Z R ) 7.                                  ",
"                                      h.] E I I Z Z Z Z Z Z R ` %.7.&._ R I Z Z Z Z Z Z U / %.                                  ",
"                                      | ' T I I Z Z Z Z R a.>X1X8X8X8X1X>Xp._ Z Z Z Z Z _ &.%.].                                ",
"                                    0.| W I I Z Z Z I ^ ~.wXwXwXwXwX7XwXwXwX1Xi./ S Z Z 8.p.a.{.                                ",
"                                    0.) R Z Z Z Z Z S ^.wX0XwXwXwXwXwXwXwXwXwXwX(.a.`  .p.y.T.].                                ",
"                                    7.) R Z Z Z Z Z %.8XwXwXwXwXwXwXwXwXwXwXwXwX8X(.f.d.s.t.T./.                                ",
"                                    7.) R A Z Z Z Z ^.wXwXwXwXwXwXwXwXwX$X). XwXwX1X!.W.y.r.U.E.                                ",
"                                    *._ H A A A Z R >XwXwXwXwXwXwXwXwX6X0 0 2 I.wX8X/.d.y.6.U.Y.                                ",
"                                    o.` K C C A A / 1XwXwXwXwXwXwXwXqXL.# }.1 # 6XwX].s.6.l P.I.                                ",
"                                      O.L D M C A / ,XwXwXwXwXwXwXwXqXC.. r 1 X ).6X{.t.l g g c                                 ",
"                                      O.L D M M C K {.eXeX7X7X7XwXwXqXA.. . . O H.OX].D.s g g z                                 ",
"                                      ..P G V M M D E.|.$X6X6XeXeX7X7XL.O . . O Z.}.I.j g g d s j                               ",
"                                        J F F V n n 2.'.}. X|.|.OX$X$X_.# o o + J.Y.D.s g g d a                                 ",
"                                          > F F N m J Y.)._._.'.}.}.}.}.$.+ @ 0 K.J.h i i f i i                                 ",
"                                          : > ; - % % X.L.K.K.).).).).).`.S.C.L.J.J.y 3 3 3 3                                   ",
"                                            , : ; - % - #.H.J.J.J.J.K.K.K.L.J.H.A.r t 4                                         ",
"                                              6 : = = - ; 7 C.Z.Z.Z.Z.A.A.C.C.r t 0                                             ",
"                                      D S 9.4XV.q.J = = = = 5 w r r r r r r 0 7 w.n.                                            ",
"                                  S   ` z.V.M.z.-.' H D B N % - : 6 X.X...J P | b.v.n.                                          ",
"                                  Z ! M.N.k.] E I I I Z A Z I Z S ! } g.} [ [ ;.g.k.h.l.                                        ",
"                                  H z.v.} E Z I I A K &.*.L Z I I I T Q [ } [ ] { | | 9.                                        ",
"                                    k.] T Z I I C &.<X3X;Xi.H Z I I I I E ' ] ] ' ) ) ` %.                                      ",
"                                  l.' I Z Z A V 8.5X5X;X!.!.7.C Z Z I I I T Q ' ( ^ K / &.                                      ",
"                                  | I I Z C F e.3X5X-XQ.!.!.f.P A Z Z I I I Z R / L V H P                                       ",
"                                  ^ Z Z M F p.2X5X;XQ.!.!.!.!.e.B Z Z Z Z Z A A K F * N ..                                      ",
"                                  D C m J !.2X5X:X!.Q.!.!.!.d.W.w.B C Z Z A C M G o.: : :.                                      ",
"                                  n * > ;X:X5X2X~.Q.Q.!.!.!.t.y.Q.w.F n M M n m ..U.3.<.<.                                      ",
"                                  $ $ :.>X>X2X-X!.Q.Q.Q.!.!.r.t.!.Q.e.J & $ & < 4.G.3.1.+.                                      ",
"                                      T.(.2X;X!.Q.Q.Q.Q.!.!.4.r.!.Q.~.[.E.F.3.5.6.G.3.<.8                                       ",
"                                      /.~.:X-X!.Q.Q.Q.Q.!.Q.1.t.!.Q.[.6X X_.E.6.6.3.1.:.                                        ",
"                                        ~.;X!.Q.Q.Q.Q.Q.Q.d.<.R.!.Q.,XOX}.`.Y.4.6.,.+.                                          ",
"                                        ^.-X!.Q.Q.Q.!.!.Q.u.<.Q.Q.Q.[.|..X).G.5.3.#.                                            ",
"                                        T.!.W.Q.Q.Q.!.!.Q.1.4.!.Q.f.T.].E.G.5.5.3.                                              ",
"                                        U.W.d.!.!.!.!.!.y.@.y.Q.d.y.u.4.1.1.1.,.                                                ",
"                                          U.y.Q.!.!.!.W.:.<.s.y.r.4.1.:.:.@.#.                                                  ",
"                                          U.r.d.Q.!.Q.4.8 4.4.1.<.:.@.+.#.e S.                                                  ",
"                                            5.r.y.y.4.7 +.@.+.#.w w t t q h v oX                                                ",
"                                            ,.>.1.@.9 9 w w 7   0 q p a s s s a                                                 ",
"                                              C.u ,.D.                                                                          ",
"                                            XX+X+X#X&X*X*X=X                                                                    ",
"                                              v b x x b XX@X%X                                                                  ",
"                                                j a s d g k j P.                                                                ",
"                                                      a a k i p                                                                 ",
"                                                                                                                                ",
"                                                                                                                                ",
"                                                                                                                                ",
"                                                                                                                                ",
"                                                                                                                                ",
"                                                                                                                                "
};
