/* XPM */
static char *_9e9e6f468294360ec777d01fd1194b1YsGUDqErB0XyXEop[] = {
/* columns rows colors chars-per-pixel */
"64 64 243 2 ",
"   c None",
".  c #020500",
"X  c #010C00",
"o  c #0A0701",
"O  c #130300",
"+  c #1A0300",
"@  c #180B01",
"#  c #011300",
"$  c #001B00",
"%  c #0C1804",
"&  c #171907",
"*  c #1A1718",
"=  c #270300",
"-  c #2A1407",
";  c #341909",
":  c #32160E",
">  c #032300",
",  c #092802",
"<  c #152905",
"1  c #093801",
"2  c #153603",
"3  c #0D2512",
"4  c #162716",
"5  c #1B3516",
"6  c #283606",
"7  c #24291A",
"8  c #372718",
"9  c #26381A",
"0  c #382C17",
"q  c #2A2925",
"w  c #342C23",
"e  c #362E2B",
"r  c #293A25",
"t  c #37322B",
"y  c #2D3733",
"u  c #363635",
"i  c #322B35",
"p  c #211A21",
"a  c #4B1602",
"s  c #452518",
"d  c #592D12",
"f  c #673A17",
"g  c #723A1A",
"h  c #68320A",
"j  c #4A3728",
"k  c #4A3E34",
"l  c #673C27",
"z  c #184504",
"x  c #1C4613",
"c  c #284B02",
"v  c #354A19",
"b  c #255515",
"n  c #375716",
"m  c #2C4C0D",
"M  c #3B6414",
"N  c #274727",
"B  c #375825",
"V  c #385A37",
"C  c #354D2F",
"Z  c #3C6537",
"A  c #356527",
"S  c #1C4622",
"D  c #475615",
"F  c #40481F",
"G  c #4A6916",
"H  c #526F1E",
"J  c #465528",
"K  c #47553A",
"L  c #4F4935",
"P  c #6D4935",
"I  c #764A2D",
"U  c #467627",
"Y  c #596A3B",
"T  c #467836",
"R  c #577B36",
"E  c #4E6B30",
"W  c #657A36",
"Q  c #7C421D",
"!  c #3D5A45",
"~  c #3D6A41",
"^  c #594E47",
"/  c #485B45",
"(  c #525A48",
")  c #5B5655",
"_  c #454545",
"`  c #6C554A",
"'  c #486745",
"]  c #487848",
"[  c #567944",
"{  c #566C51",
"}  c #687A53",
"|  c #667052",
" . c #737464",
".. c #844B26",
"X. c #875739",
"o. c #965B39",
"O. c #8A532A",
"+. c #95673D",
"@. c #AD6C3E",
"#. c #895C46",
"$. c #9A6847",
"%. c #8A6855",
"&. c #956953",
"*. c #9A745B",
"=. c #8B6248",
"-. c #A46848",
";. c #B6764B",
":. c #A5745A",
">. c #AB7352",
",. c #957A69",
"<. c #AB7D64",
"1. c #58852E",
"2. c #4B8237",
"3. c #55883B",
"4. c #5A943A",
"5. c #6A853A",
"6. c #6D9238",
"7. c #79A334",
"8. c #588748",
"9. c #5C9147",
"0. c #598756",
"q. c #5D9656",
"w. c #4D814D",
"e. c #668948",
"r. c #748A4A",
"t. c #679A47",
"y. c #799948",
"u. c #678959",
"i. c #699856",
"p. c #779C58",
"a. c #6CA44C",
"s. c #79A74A",
"d. c #7CB14E",
"f. c #6CA455",
"g. c #73A653",
"h. c #74AB54",
"j. c #7BAB54",
"k. c #77A859",
"l. c #7CB35C",
"z. c #7BB457",
"x. c #798966",
"c. c #6B9763",
"v. c #769964",
"b. c #7B8A78",
"n. c #79A964",
"m. c #7EB362",
"M. c #7CB966",
"N. c #7AAB71",
"B. c #7FB270",
"V. c #899D56",
"C. c #82984B",
"Z. c #84AA4C",
"A. c #87A846",
"S. c #97AC4C",
"D. c #88B64C",
"F. c #93B84B",
"G. c #84AB53",
"H. c #8CAD54",
"J. c #87A858",
"K. c #95AB58",
"L. c #84B25B",
"P. c #8BB55C",
"I. c #84BA5C",
"U. c #8BBC5B",
"Y. c #86B654",
"T. c #9CBD5B",
"R. c #95B558",
"E. c #A4BC5D",
"W. c #889B68",
"Q. c #898B74",
"!. c #A5826C",
"~. c #B7876D",
"^. c #A88779",
"/. c #B79275",
"(. c #85A967",
"). c #95AB67",
"_. c #84B563",
"`. c #8BB463",
"'. c #85BC62",
"]. c #8BBB62",
"[. c #88B76A",
"{. c #98B867",
"}. c #87AA75",
"|. c #98AB77",
" X c #86B874",
".X c #95B977",
"XX c #A4BD64",
"oX c #A8BA78",
"OX c #C78A6F",
"+X c #8DC25A",
"@X c #98C658",
"#X c #A5C65A",
"$X c #ABD259",
"%X c #B7DA59",
"&X c #A9CF54",
"*X c #BDE35B",
"=X c #BEE24E",
"-X c #8AC269",
";X c #93C26A",
":X c #9AC568",
">X c #9ED064",
",X c #9BC676",
"<X c #8CC370",
"1X c #A6C868",
"2X c #B2CA6B",
"3X c #B9D568",
"4X c #ABCC7A",
"5X c #A7C577",
"6X c #B3CC76",
"7X c #A7D577",
"8X c #B8D77A",
"9X c #ABD16B",
"0X c #B7E273",
"qX c #C6E85A",
"wX c #C4DC77",
"eX c #C4E268",
"rX c #C5EB72",
"tX c #8D9989",
"yX c #AC9487",
"uX c #94AA8F",
"iX c #A7B28D",
"pX c #B5BDAB",
"aX c #B9BABC",
"sX c #CAA592",
"dX c #96C481",
"fX c #A6C484",
"gX c #BBDA87",
"hX c #B1D192",
"jX c #B8D4AE",
"kX c #C4DB88",
"lX c #C7DA96",
"zX c #D3E989",
"xX c #D6F085",
"cX c #CAE396",
"vX c #CBE486",
"bX c #D9F3AD",
"nX c #E1F9A1",
"mX c #BED7C2",
"MX c #CAD6C7",
"NX c #FDFFFC",
"BX c #F8FAF6",
"VX c #EFF3EE",
"CX c #E7E8DC",
/* pixels */
"                                                                                                                                ",
"                                                                                                                                ",
"                                                                                                                                ",
"                                                                                                                                ",
"                                                                                                                                ",
"                                                          o % o X & o L                                                         ",
"                                                    9 <   6XE.S.2XK.E.V.6 6                                                     ",
"                                                      Y 2XxX%XqXeXwXrXE.D } J                                                   ",
"                                                  r   lX#X%X=XqXqX$X3XE.6XkXJ |                                                 ",
"                                                &   W.y.2X0X=X*X$X3XE.E.6XV.lXK (                                               ",
"                                                X ' { ).{.H.@XwX8X6XH.J.XX).oXlX{ q                                             ",
"                                            X } } X 2 R u.`.`.`.5X(.W.E % % . Y K * BXBX                                        ",
"                                              |.|.E v.2 B 8.i..Xn.r.n v H.y.K.c 6 { ) BXBXBX                                    ",
"                                        Y   hX5X.XfXhXV v.f.e._.R n n e.nXwXxXK.D L 7 | Q.pXBXNX                                ",
"                                      v   ).r.R e.8.u.N.hX'.6.d.p.c p.8X$X%X%XxXC.X x.0 % ` MXaXBX                              ",
"                                    r W.).J.2 > > > > y.`.].d.U.L.:X;X>X%XrX%XeX5.@ F iXbXQ.. * CXBX                            ",
"                                  y r x.r.X XX8XE.2XwX< H :Xp.4.m.'.+X@X$XqX*X3XwX).X W.lXoXoX|.% aXBX                          ",
"                                  C 4 v , J.6XwXzXwXwXC.H.).(.k.m.'.U.F.&X%X3X3XXX).V.6 W 8XwX{.X MXBX                          ",
"                                 .K 9 v r.4X6XvX2XwXXX6X6X{.|.dXdXfX:XD.F.&X#XF.S.K.6XW V.1X#XH.r.} pXNX                        ",
"                                9 oXG 2 gXC.kX2X2XwXS.6.H R 5.U U L.].D.D.D.D.T.{.K.s.4X1XA.A.#XlX,  .BX                        ",
"                            o 6 cXlXH c P.R.1X1XR.K.K.< < 2 , < 2 5.J.Z.{.U.G.7X,XD.P.Y.+X+XF.>XgXc Q.VX                        ",
"                          Y   oX6XvX9XG 2 Z.P.P.XX6.X kXzXoXoXwXgXc n 5X].h.[.L.d.z.:XD.@X>X+X@X{.5XV ( NX                      ",
"                        F D cXkXwX8X#X7.6.Y.;XP.1.2 XXkX6XkXnX2XkXXXG m e.uXB.t.a.-Xd.Y.+X+XY.Y.s.fXC _ NX                      ",
"                        Y V.8X6XeXE.#X1XD.a.j.R M r.kXE.8XkX2X#XXXcX).n B u.N.M.f.+Xz.4.d.-Xa.t.P.V.9 y BX                      ",
"                      9 W.5XG.9X#XA.1X>Xd.t.].1 c bX7XR.E.2X&XA.E.K.cXV.X u.u.B.k.h.M.4.h.M.k.i.k.E V tXNX                      ",
"                    . |.|.`.H.:X#XZ.Z.Y.l.l.<XU M ;XH.{.@XF.T.F.A.XX4X5.$ S A n.n.3.-Xh.-XM.B.v.8.# b.BXBX                      ",
"                    % C W.).{.7XY.U.:X,X].m.m.l.U 2 H.Z.A.@X7.0XE.S.c # $ # $ b T 4.3.3.T i. X0.e.> W.VXVX                      ",
"                    X x.v.k.`.`.G.U.<X<XM.m.t.h.L.G.P.0X@X7.&X+XF.z H .X[. XhXn 2 U U 9.3.8.w.8.8.iXE % 9                       ",
"                      N # B N.[.[._.M.m.3.f.t.h.L.j.U.:XU.Y.I.+XY.6.d.5XfX.X5X`.M , j.k.,X3.z u.e.J.).V.} J                     ",
"                      # > x b f.a.i.f.a.2.t.a.z.].L.].P.P.-Xa.M.P.,X,XP.1XP.s.8XG.G 4X:X,Xj.n c e.hX6XvXkXD  .                  ",
"                      N Z x 1 8.8.2.2.4.4.l.a.a.P.L.L.y._.M.M.M.m.h.'.;X1XR.T.R.T.6X8XgX{.4XG.c e.5X3X$X3XzX.                   ",
"                    X uXc.} 0.b 2.4.4.4.M.'.z.-X`.L.P.3.h.l.-Xh.-Xs.Y.U.:XA.7XT.R.6X1XP.R.G.:X4X$ J.0X3XS.K.& tX                ",
"                uX, fX(.[.p.8.9.d.>X0X>XY.z.:XL.s.4._.z.l.+Xa.4.U.d.z.z.I.;XY.].Y.+X;XL.7X,X`.`.> p.5X).).|.% yX                ",
"              x.F .X5XK.(.<X9.1 @X@X@XD.Y.0Xd.L.k.j.-Xl.h.z.+Xd.D.Y.+Xl.l.9.m.h.h.t.d.s.L._.k.g.# k.5X(.W.x.X uX                ",
"              ( 6 fX(.`.[.e.A Z 7X7.@X7Xs.7X;Xl.,Xk.t.[.M.h.k.M.+Xd.z.<Xk.2.n.,Xh.a.;X[._.<Xi.1 z i.n.}.uXu.$ tX                ",
"              K < } k._.uXm z jX-XY.-X>XL.h._.p.8.k.9.i.3.f. XM.f.M.M.9.b q.f.N.dXi.M.m.e.A b 1 9.8.8.N.}.' # tX                ",
"              b.5 u.[ v.c.b 1 N.l.L.;X].g.[.[.z z 8.T q.] c.N.i.M.M.q.A 1 Z 0.c.8.R c.2.z > x q.2.q.w.0.~ ! 3                   ",
"                }.# u.v.w.] N > B. Xk.n..XB.1 b u.Z > A c.c.Z 1 N.q.w.c.] $ # # $ $ $ # x Z ] ] 0.w.c.] ! X MX                  ",
"                    # V V ! N N > p.jXu., 2 2 ] } u.N < # $ 2 N q.0.0.{ 0.5 3 < V r N S V V V ~ w.] S X 3 mX                    ",
"                    tX3 y ' ! ! N 9 5 9 5 5 V ' ' V , $ . X * K ~ ~ ' ' / 9 X 3 3 5 / ! V V ! C ] 3 ! uXuX                      ",
"                      b.7 4 y 3 4 / ( K 5 5 5 3 q 3 X o o o * w N 4 < r 4 . o . o % 4 p 3 5 5 3 4 ! pX                          ",
"                        b.4 4 u 7       & 7 r 4 . % t & O 0 : O . & - o @ . o e u e * y q r 3 ! q                               ",
"                                              ) . k t j s : P l 0 j L L 8 O k _ p p                                             ",
"                                                Q.O ` %.l d l :.f I &.I = s ` : )                                               ",
"                                                  ,.: !.>.g ..o.o.$.-.d d ,.8 ` CX                                              ",
"                                                    O ,.~.o.O.;.;.o...g +./.@ yX                                                ",
"                                                    @ !.-.@.;.@.@.;...O.$./.- Q.                                                ",
"                                                    - *.>.>.@.h ;.;.@.o.>./.@ yX                                                ",
"                                                    @ ,.:.X.h a f +.X.I -.~.= yX                                                ",
"                                                    O ^.&.#.d a f +...g $.sX= yX                                                ",
"                                                    = !.OX#.Q a ..+...Q -.<.= yX                                                ",
"                                                    = *.o.-.-.o.+.+.o.o.-.OXa yX                                                ",
"                                                  sX; X.X.g -.OX-.;.;.-.g OX= yX                                                ",
"                                                  - !.&.~.d a OX-.+.OX#.a :.yXa `                                               ",
"                                            ^ @ k !.,.; = l ~.$.a #.-.:.:.= %.yX .* u                                           ",
"                                           .^ j ^ ` j s a P &.I = l ` #.#.s s ` ^ q )                                           ",
"                                          O q k p @ @ - 8 ; - : O O - ; ; - @ O * _ k *                                         ",
"                                        q u e q t q 7 w t 7 0 0 t e w w w w e e u * i i                                         ",
"                                                                                                                                ",
"                                                                                                                                ",
"                                                                                                                                ",
"                                                                                                                                ",
"                                                                                                                                ",
"                                                                                                                                "
};
