/* XPM */
static char *result[] = {
/* columns rows colors chars-per-pixel */
"64 64 131 2 ",
"   c #323C6E",
".  c #374171",
"X  c #3D4675",
"o  c #3F4877",
"O  c #404977",
"+  c #444C7A",
"@  c #46507C",
"#  c #49527E",
"$  c #4D5581",
"%  c #535B85",
"&  c #555D89",
"*  c #585F88",
"=  c #5C648C",
"-  c #5B6392",
";  c #61698F",
":  c #646C91",
">  c #657194",
",  c #6B7396",
"<  c #6C7698",
"1  c #71779A",
"2  c #737B9D",
"3  c #7681A0",
"4  c #7B83A3",
"5  c #7D88A4",
"6  c #8187A5",
"7  c #828AA7",
"8  c #848CA9",
"9  c #888FAC",
"0  c #8492AC",
"q  c #8B93AE",
"w  c #8D97B1",
"e  c #949BB5",
"r  c #999FB7",
"t  c #969FB8",
"y  c #96A1B7",
"u  c #94A7BB",
"i  c #9CA3BA",
"p  c #9CA8BC",
"a  c #A0A6BD",
"s  c #A3AABE",
"d  c #9FADC1",
"f  c #9CB5C3",
"g  c #A4ACC1",
"h  c #A8AEC2",
"j  c #A7B2C4",
"k  c #ABB2C5",
"l  c #A9B8C7",
"z  c #ADB7C9",
"x  c #ADBDCC",
"c  c #B0B5C7",
"v  c #B1B6C8",
"b  c #B3BCCD",
"n  c #B8C1CF",
"m  c #B1C6D2",
"M  c #BDC5D4",
"N  c #BDC3DB",
"B  c #B6CED9",
"V  c #BBD4DA",
"C  c #BFE7EB",
"Z  c #BEEEEE",
"A  c #BDF2EF",
"S  c #BEEFF3",
"D  c #BDEFFA",
"F  c #B7F3F4",
"G  c #BCF1F4",
"H  c #BCF2F9",
"J  c #C0C6D4",
"K  c #C3CAD7",
"L  c #C3CDD9",
"P  c #C8CEDA",
"I  c #C5D2DC",
"U  c #CBD2DD",
"Y  c #CDD5E0",
"T  c #C5DEE3",
"R  c #CCDAE2",
"E  c #D1D6E0",
"W  c #D4DBE3",
"Q  c #D9DEE5",
"!  c #D8DFEB",
"~  c #CCE5E6",
"^  c #C6EBE7",
"/  c #CDE9E7",
"(  c #C4E5EC",
")  c #C9E7ED",
"_  c #C4EDEE",
"`  c #CBECEC",
"'  c #D3E6E6",
"]  c #D2E9E7",
"[  c #D5E3EA",
"{  c #DCE4EA",
"}  c #D3EDEC",
"|  c #DBEDED",
" . c #C3F0EF",
".. c #CCF0EE",
"X. c #D3F0EE",
"o. c #DBF1EE",
"O. c #C3EEF2",
"+. c #CBEEF1",
"@. c #C1EFF8",
"#. c #D3EFF2",
"$. c #DBEEF1",
"%. c #C3F1F3",
"&. c #CCF2F3",
"*. c #CFF8F6",
"=. c #C3F1F8",
"-. c #CDF5F9",
";. c #D3F3F4",
":. c #DBF3F4",
">. c #D1F8F7",
",. c #DCF8F6",
"<. c #D4F6F9",
"1. c #DBF6F9",
"2. c #D5FAFA",
"3. c #DCFAFB",
"4. c #E2E5EB",
"5. c #E3ECEE",
"6. c #E1F0EF",
"7. c #E4EDF1",
"8. c #EAEFF3",
"9. c #E3F4F4",
"0. c #EBF4F5",
"q. c #E4F8F7",
"w. c #EBF8F7",
"e. c #E3F6F9",
"r. c #EBF6F9",
"t. c #E4FBFC",
"y. c #ECFCFC",
"u. c #F2F4F6",
"i. c #F1F7F9",
"p. c #F3FDFD",
"a. c #FAFDFE",
/* pixels */
"X X X X X X X X X X X X X X X X X X X X X X X X X X X O X X X X X X X X X X X X o X X X X X X X X X X X X X X X X X X X X X X X ",
"X X X X X X X X X X X X X X X o X X X X X X X X X X X X X X X X X X X X X % < : = = X X X X X X X X X O X X X X X X X X X X X X ",
"X X X X X X X X X X X X X X . . X O X o X O X @ o o + * % 5 1 O X X @ : 0 g I { Y K k , $ + ; 1 : < 4 , % X X X X X X X X X X X ",
"X X X X X X X X X X X X X + & 1 6 w i i 1 e h a t g K W { 7.7.Y g t d m T :.y.y.p.i.0.E b c J W 4.W Q { j < + X X X X X X X X X ",
"X X X X X X X X X X X O   4 N ! 8.p.i.i.i.p.p.p.e.1.;.X.` o.y.p.y.9.| ^ _ ;.,.t.y.q.5.0.7.u.a.a.a.a.a.a.0.E w % X X X X X X X X ",
"X X X X X X X X X X X O % b p.p.0.9.9.9.w.p.p.y.3.+.^  ...` t.p.y.1.` _ O.%...X.,.:.9.y.u.a.a.a.a.a.p.p.y.r.W 3 X X X X X X X X ",
"X X X X X X X X X X O # i 4.p.e.} ) } ` } t.y.1.+.%. .A Z +.3.t.:.+. .Z S %. .^ ^ | w.a.a.i.p.p.a.p.8.9.:.:.| 7 O X X X X X X X ",
"X X X X X X X X X X * s 4.a.p.9.} ^ _  ...;.;.` ( G G G A _ <.2.&.O.A F G G G A ..] y.a.p.6.7.r.r.$.+.O.( +.R 5 O X X X X X X X ",
"X O X X X X X X X # t 5.a.a.a.0.;.+.+._ _ ..+.%._ G F G S O.+.+.O. .G A G S G A _ :.y.p.p.q.:.} &._ A A  .O.^ q o X X X X X X X ",
"X X X X X X X X + e Q p.p.p.p.p.y.3.3.+._ _ %.Z S G G G S O.O.O.` &.^ A S @.S Z O.;.t.p.y.y.<._ O.G G G G @.+.P : X X o X X X X ",
"X X X X X X O # e [ e.q.,.q.e.y.y.p.y.t.;.&._ G S G G S @.O.<.:.,.t.X.X.&.+.O.O.O.O.1.t.t.3.*. .G Z G F G G ;.,.x & X X X X X X ",
"X X X X X X X , L o.} X./ ..} $.y.y.y.y.y.;.( %.S %.O.S O.+.3.y.p.y.y.y.3.1.-.@.O.S -.2.&.%.%.A G S G G G _ &.| | i o X X X X X ",
"X X X X o X O 5 { | / ^ ^ _ ^ ^ t.y.y.p.p.7.1.&._ _ _ O._ ;.t.y.p.p.p.y.3.2.-.S G S =.O._ Z A A A G %.G %.&.:./ | J @ X X X X X ",
"X X X X o # = U 0.| X.;.;.&._ _ ;.2.:.:.7.9.t.y.9.;.;.;.&.;.1.:.y.p.y.;.&.=.@.S D S S O.O.Z _ Z _ %._ ` ;.,.:.} 5.' , X X X X X ",
"X O X X # 7 U u.p.y.t.t.t.2.O.%.+.+./ } 7.y.p.p.p.p.p.3.:.3.;.#.#.,.;.` Z S G D D S G @.O.*.&.;.;.;.;.t.y.y.t.y.p.0.q X X X X X ",
"X O O # y E u.a.p.y.y.t.y.t.&._ +.` $.e.r.p.p.p.p.p.y.3.&.;.;.:.} ` ` _ O.S G H F H H %.<.t.y.w.,.9.q.p.w.y.y.w.w.0.w X X X X X ",
"X X O 9 5.y.p.a.y.6.| X.,.t.>.&.#.:.y.p.p.p.p.p.y.e.:.+.` _ &.2.2.-.&.%.@.D H H F H S O.t.y.e.:.} / } X.} 9.w.o.6.y.z + o X X X ",
"X X = z w.q.y.p.y.9.] _  .&.>.;.:.r.p.0.7.9.y.t.} +.O.( _ O.%.&.3.<.-.-.=.S H F F G Z ;.t.y.} ^ _ _ ^ / ] 6.w.9.9.p.{ 1 X X X X ",
"X X = s | o.y.p.:.+._ _ %. ._ #.9.p.p.0.| ] ;.&._ O.@.@.%.=.O.O.O.%.%.S G G G S G @._ :.y.2.` _  ...X.;.o.q.p.q.X.:.r.P w : X X ",
"X X = n 7.p.p.w.#.+.O.S  ._ ` :.y.p.p.p.9.} ..` O.@.@.S G O.%.O.%.%._ A %.A @.O._ ` } :.3.2.O._ %.2.t.t.y.y.p.w.:.t.p.p.4.b , X ",
"X X 2 { 0.0.y.y.3.#.O.S O.O.+.:.p.p.a.p.y.,.3.&.O.O.@.S G G @.%.*.&...` +.+._ +.#.#.$.} } &.O.%.*.t.y.t.y.w.p.p.y.y.y.| 7.r.h @ ",
"X $ c i.7.] e.p.p.3.+.O.@.@.+.1.y.a.p.p.p.y.t.;.+.@.S D G G %.&.1.2.1.t.:.9.:.9.e.r.9.X.` ` ` +.<.t.t.X.o.o.y.p.p.p.q./ } r.b O ",
"X O k 9.o.] :.y.y.t.;.O.O.S O.;.t.p.p.p.p.y.t.<.&.D G F F =...;.2.1.t.y.p.p.p.p.p.p.y.y.t.;.#.&.2.2.*.^ / | q.y.p.y.:./ { W 2 O ",
"X X 3 I o.~ } ,.t.t.1.O.G S _ _ ,.t.y.w.:.1.#.O.S G H F G %.;.<.+.&.1.t.y.p.p.p.p.p.r.p.p.9.$.;.&.&. . ._  .;.9.p.p.r.9.y.b + X ",
"X X # g e.] / } <.<.&.@.H G S _  ...;.X.` ` O.S S F H F  .&.2.&.` _ ..;.;.:.q.t.w.9.5.0.p.p.9.#.` _ _ G O.O.+.<.y.p.p.0.p.U % X ",
"X X X e $.9.} ^ _ S Z @.G G G G Z O.O._ ` %.@.S F G  .O.;.2.2.+._ O.( O.+.( ..,.X.] | u.p.p.y.e.+._ S Z O.O.+.e.y.y.{ 5.r.7.7 X ",
"X X O 0 $.y.9.&.O.A S S S H =.H D @.%.O.@.@.O.S %.%.&.<.<.<.&.O.O.%.O.H @.O.O._ ` } 9.p.a.p.p.y.#.O.@.O._ ( <.y.p.q.} | e.r.i o ",
"X X $ f ;.y.y.t.&.S O.@.@.@.D D D @.O.+.&.%._ O. .&.%.%.O._ S O.%.O.S S @.@.S &.2.,.y.p.a.p.p.y.;.+.O.@.O.;.t.p.y.e.} ] 9.e.y X ",
"X X 3 V ..,.t.3.2.+.+.O.O.) O.@.@.+.+.;.%.=.S =.G G S Z  .%.%.%.S G =.H @.O.O.;.t.y.y.p.p.a.p.t.#.@.S S O.<.:.o.X.o.:.| 0.{ = X ",
"X o 2 R X...X.>.*.+.) ` ) ) ( O.) ` #._ _ O.@.O.A  ._ ` ` &.*.G G G G H @.O.+.#.t.y.y.p.p.y.y.,.+.O.S S O.#.&.^ ^ ^ o.q.y.z X X ",
"X X O B :.X.X.^ ^ } ;.;.+.&.>.;.;.&.;.} ` ` #.+.` &.&.&.;.1.&.C S G H F H S @.+.;.1.,.q.q.t.,.X._ %.%.&.+.#...>.,.,...` w.d X X ",
"X X < B :.9.9.o...%.S A %._ O.O.O.S -.-.:.1.$.;.;.>.&.&.%.%.&.O.O.G F F F D D O.+.+.` X.X.X.;.` &.O.+.+.+.` &.2.t.t.q.;.,.V > X ",
"X @ u o.o.X.X.X.+.+.%.=.%.%.+.+.+.&.@.@.<.3.1.<.-.<.&.-.O._ _ O.S G Z F G F F G O.O.O.O.` +.+.+.O.@.) @.@._ O.&.2.y.p.t.,.` u = ",
"X 2 ' q./ ` ^ _ ` +.#.#.;.+.+.+.` #.+.@.-.=.O.O.%.%.-.2.2.&.O.%.O.O.O.%.%.G F G G G %.O.+.;.+.@.D @.@.@.S @.S _ ` } r.y.,.^ R ; ",
"O s w.X...o.>.<.&.+.) +.O.+.@.@.@.O.+.-.&.O._ _ _ &.;.;.3.2.%.%.O.G @.O.%.O.%.%._ +.&.;.+.+.@.@.H H H D S @.S O.` ^ ] e.9.:.' $ ",
"# n ,.` ,.3.t.3.+.O.O.@.O.@.H D @.@.+.O.O.O.S S G %.O.` #.2.` _ _ Z O.+.+.+.*.;.&.O.O.O.@.O.O.@.S S G G H O.-.3.1.} / } w.y.K + ",
"@ q } o.q.y.t.>.O.S G @.D H H H @.@.O.O.O.O.@.S G F G G  .;.*._ +.+.+.+._ ` ;...S G G O.O._ .. ._ _ Z G G O.1.t.y.q.} ] w.w.i X ",
"X # l ,.y.y.;.+.O.S S S F G H %.O._ +.` +.` O.O.G G F F G %.&.;.;.:.,.,.:.:._ S F G S O.` } ,.t.,.&._ S S +.<.t.p.p.e.[ 0.7.: X ",
"X X = | p.$.~ ^  .O.O.=.G G O._  .X.:.:.} ;.+.+.O.S G H F =.%.<.t.y.p.p.w.;.G F H S O.;.q.w.p.p.y.t.&.@.@.O.( ;.t.y.p.r.Q e $ X ",
"X X = I e.} ^ ;.>.<.;.@.G S Z O.,.t.y.y.y.y.t.<.+.=.=.F F F %.O.<.t.y.q.;.%.F F S @.+.t.y.p.p.a.p.y.;.+.O.S %._ +.3.p.8.e + X X ",
"X X 2 Y o./ } :.t.t.2.O.@.S O.+.t.y.p.p.a.y.y.3.+.O.O.@.D S G S -.>.&.&._ F F F =.O.#.t.t.y.p.p.p.p.#.+._ A %.%.+.r.p.U = X X X ",
"X o d { } / :.t.p.t.<.+.O.@.+.;.t.p.a.a.p.y.t.3.+.O.@.@.S S S O.O.%.&.+.G G H =.@.O.O.-.:.9.p.a.a.y.:.^ _ %._ } 9.p.a.U # X X X ",
"X @ I p.| } q.p.p.1.+.O._ @.O.#.y.p.p.p.p.9.;.&.O.@.-.-.<.<.-.;.+.&.>.-.Z G S @.@.@.O.+.^ ' 9.i.p.9.;.<.&.&.^ } 9.i.p.U # X X X ",
"X $ s 8.0.5.e.p.t.+._ _ S Z ` +.q.p.p.a.y.' } ..` +.1.e.#.#.+.+.&.&.&.%.O.O.@.G @.O.O.;.q.7.5.p.p.:.;.*.3.t.,.q.y.p.w.i X X X X ",
"X X ; h P { a.p.:.+.O.=.%.%._ ` :.e.p.p.8.| 6.q.t.:.;.#.+._ Z %.S _ O.Z O.O.%._ O.` X.w.p.p.p.y.e.` ` +.;.t.t.t.y.p.5.= X X X X ",
"X X O = 2 e W r.q.;.+._  .%.%.&.#.:.r.p.w.0.p.p.y.} ` ( @.G G G G =.-.*.&.O.%.( #.,.y.p.p.p.y.:.#.` +.O.%.>.<.:.} 5.K = X X X X ",
"X X X X X X 2 ! i.w.o.^ ^ ;.2.>.;.} ,.y.y.i.p.p.i.} O.G S F G =.*.&.2.3.3.&._ +.1.y.p.a.p.y.0.{ } ;.>.O._  .` / / 6.R # X X X X ",
"X X X X X X @ p 0.w.6.o.:.t.t.<.&.( } } :.e.y.p.y.+.S H F G S @.=._ &.#.;.>.;.3.t.y.y.y.y.y.5.0.q.t.t.#.` ` ^ } X.o.j # X X X X ",
"X X X X X X X 1 Q p.y.y.t.y.3.%.%._ &./ ] 5.0.r.t.%.G H F H D G _ _ ;.$.#.;.<.;.;.<.` ;.1.:.9.p.p.y.y.y.$.:.;.q.y.:.< X X X X X ",
"X X X X X X X : I i.p.y.,.3.<.%.%.&.2.,.9.0.9.t.1.%.G H H D S O._ ;.y.y.r.e.:.` O._ O._ =.( ;.,.t.y.y.p.i.y.p.p.p.[ 3 X X X X X ",
"X X X X X X X % z 5.o.} X..... .( :.y.y.y.t.q.;.&.O.G S S D @.@.&.q.p.p.p.y.1._ O.G G G S _ ..&.;.3.t.t.a.a.a.a.q.T 0 o X X X X ",
"X X X X X X X X 4 Q 5./ / ..^ ^ } y.y.t.X... ..._ @.S S S @.O.2.t.y.p.y.p.t.<.O.@.G G S Z %._ _ _ ` +.#.9.a.a.i.:.' y $ X X X X ",
"X X X X X X X X % J e.] ;.} ..o.e.y.#._ %. . .A G _ %.=.S G O.>.<.:.X.,.:.&.+.O.G G F A %.&.&._ _ _ ` ` :.p.a.w.:.9.s # X X X X ",
"X X X X X X X X + 3 I o.q.q.q.y.q.;.=.S %.A G G %.>.2.&.O.O.O.O.O.%._  .O.` O.O.%.G G Z ( +.t.:.} ` / | w.p.a.y.y.5.q X X X X X ",
"X X X X X X X X X X > b 5.a.p.p.:.O.G G G S S &.3.t.y.t.;.+.O.G A A A A %.;.<.&.Z A A %.&.3.p.p.q.9.0.r.p.a.a.u.Q p = X X X X X ",
"X X X X X X X X X X @ ; k 4.a.p.+.S A F G G O.#.t.y.p.p.:._ G G G F F A  .2.t.;._ _ A _ 1.y.p.p.i.p.a.a.i.u.0.J 7 % X X X X X X ",
"X X X X X X X X X X X X = s 4.a.;.%.G G G %.+.+.o.y.p.p.9.^ _ %.G G G ..;.q.p.3./ ` +.,.w.p.r.W k s v c e r 7 ; @ X X X X X X O ",
"X X X X X X X X X X X X X + 8 E ;._ G A _ ..e.8.5.w.u.a.9.} ` ^ %.A ( ` 9.y.p.r.o.o.0.e.0.W h : O O # $ X O O X X X X X X X X X ",
"X X X X . + & & + . X X X X + 4 ' ` ` ^ +.r.p.a.a.p.p.y.6.9.t.:.:.;.^ T b g k M M b v s 9 : $ X X X X X X X X X X X X X X X X X ",
"X X X X X + - - $ X o X X X X = l | :.q.y.p.a.a.a.u.8.0.5.y.y.p.t.} m 0 = X O + X % = O X o X X X X X X X X X X X X X X X X X X ",
"X X X X X O % % + X X X X X X X 9 { w.p.a.a.a.a.a.Q P P 7.r.8.r.R i > X X X X X X X X X X X X X X X X X X X X X X X X X X X X X ",
"X X X X X X X X X X X X X X X X = q K 5.u.a.W W c 6 # ; 3 q w 2 < @ X X X X X X X X X X X X X X X X X X X X X X X X X X X X X X ",
"X X X X X X X X X X X X X X X X X O = 2 e 9 , # # X O O X O X o X X X X X X X X X X X X X X X X X X X X X X X X X X X X X X X X ",
"X X X X X X X X X X X X X X X X X X O X O O X O O X X O X X X X X X X X X X X X X X X X X X X X X X X X X X X X X X X X X X X X "
};
