/* XPM */
static char *result[] = {
/* columns rows colors chars-per-pixel */
"64 64 221 2 ",
"   c #313C6D",
".  c #374171",
"X  c #3D4675",
"o  c #3F4876",
"O  c #6E5D5D",
"+  c #725F5D",
"@  c #7B655B",
"#  c #7E725F",
"$  c #47496D",
"%  c #4D4D6E",
"&  c #55516A",
"*  c #50506D",
"=  c #5C5469",
"-  c #404773",
";  c #424973",
":  c #4B4D71",
">  c #434C7B",
",  c #4A517B",
"<  c #515271",
"1  c #685A66",
"2  c #655B6C",
"3  c #66626A",
"4  c #69616B",
"5  c #776967",
"6  c #7F7460",
"7  c #B77939",
"8  c #BD7C3D",
"9  c #C67E33",
"0  c #CD7E36",
"q  c #825E56",
"w  c #8B6A4D",
"e  c #966D4B",
"r  c #9A6D4D",
"t  c #9F7446",
"y  c #92704F",
"u  c #9A724D",
"i  c #836655",
"p  c #876856",
"a  c #8C6A52",
"s  c #956C50",
"d  c #8E7056",
"f  c #8A735B",
"g  c #96765A",
"h  c #A37345",
"j  c #A77745",
"k  c #B27B43",
"l  c #B67A45",
"z  c #826B64",
"x  c #887964",
"c  c #947C61",
"v  c #C27D41",
"b  c #E99A1E",
"n  c #FB9A1A",
"m  c #DA8728",
"M  c #DC8A2E",
"N  c #C58335",
"B  c #CB8537",
"V  c #D58832",
"C  c #CE923D",
"Z  c #DF9D38",
"A  c #E98B27",
"S  c #E38B2C",
"D  c #ED9425",
"F  c #E99828",
"G  c #EB9D2B",
"H  c #F49525",
"J  c #F59925",
"K  c #FC9D24",
"L  c #F3952A",
"P  c #F99429",
"I  c #F49B2A",
"U  c #FC9D2A",
"Y  c #F38C31",
"T  c #EDA22E",
"R  c #E6A82E",
"E  c #F2AC2F",
"W  c #E5A534",
"Q  c #EAA333",
"!  c #E5AB33",
"~  c #EBAB34",
"^  c #E7A639",
"/  c #EBA93A",
"(  c #ECB436",
")  c #E9B63B",
"_  c #ECB43A",
"`  c #EDBD3A",
"'  c #F3B937",
"]  c #F1BB3B",
"[  c #F2D019",
"{  c #EED32F",
"}  c #F4D429",
"|  c #EDC43C",
" . c #EDC838",
".. c #F2C73B",
"X. c #F5CC3D",
"o. c #EED536",
"O. c #EDD33C",
"+. c #F3D435",
"@. c #F3D33C",
"#. c #F3D73E",
"$. c #9F805F",
"%. c #B9875A",
"&. c #B08D58",
"*. c #BD8A5A",
"=. c #978265",
"-. c #B19060",
";. c #C99944",
":. c #C28C58",
">. c #D69653",
",. c #E29C4F",
"<. c #E39C51",
"1. c #D7B249",
"2. c #EAAA49",
"3. c #EDA94B",
"4. c #F2A64E",
"5. c #F2AA4C",
"6. c #FBAE4E",
"7. c #E5B642",
"8. c #EBB443",
"9. c #EDBE43",
"0. c #E6B94A",
"q. c #ECBB4A",
"w. c #F5B34B",
"e. c #F6B84A",
"r. c #F3A451",
"t. c #F5AA51",
"y. c #FCAC52",
"u. c #E1B854",
"i. c #F9B851",
"p. c #EEC242",
"a. c #EEC74C",
"s. c #EFCC49",
"d. c #F2C544",
"f. c #F3CB44",
"g. c #F8CB44",
"h. c #F2C44A",
"j. c #F4CD4B",
"k. c #FACF4D",
"l. c #ECD743",
"z. c #EFD44B",
"x. c #F4D444",
"c. c #FAD344",
"v. c #F4D945",
"b. c #FCDA44",
"n. c #F4D54A",
"m. c #FBD34A",
"M. c #F4DB4B",
"N. c #FADB4B",
"B. c #EDC856",
"V. c #F1C550",
"C. c #EED659",
"Z. c #F3D753",
"A. c #F5DD54",
"S. c #FADA53",
"D. c #F1D65A",
"F. c #F3DE5B",
"G. c #F7E248",
"H. c #F6E24D",
"J. c #F5E253",
"K. c #F9E252",
"L. c #F5E259",
"P. c #F7E95E",
"I. c #EED764",
"U. c #F3DB6D",
"Y. c #EDD974",
"T. c #F1D173",
"R. c #F3DB73",
"E. c #F1DE7B",
"W. c #F5E663",
"Q. c #F6ED64",
"!. c #F9ED66",
"~. c #F3E56A",
"^. c #FAE669",
"/. c #F6EA6A",
"(. c #F8ED6A",
"). c #F5E474",
"_. c #FAEC74",
"`. c #F8E979",
"'. c #FAED7D",
"]. c #FBF07E",
"[. c #4C5482",
"{. c #4F5886",
"}. c #525985",
"|. c #545C8A",
" X c #58608F",
".X c #5B6392",
"XX c #676D98",
"oX c #6B709B",
"OX c #888CB8",
"+X c #8D91BD",
"@X c #F3DE85",
"#X c #F5E987",
"$X c #FBEE85",
"%X c #F9EE8B",
"&X c #F6F086",
"*X c #FAF084",
"=X c #FAF08A",
"-X c #F9EE92",
";X c #F7E798",
":X c #F6E89B",
">X c #FAF195",
",X c #F7F299",
"<X c #FBF19D",
"1X c #EEE6A7",
"2X c #F5E9A6",
"3X c #F8EAA4",
"4X c #FBEEAD",
"5X c #F7F0A3",
"6X c #FBF1A3",
"7X c #FBF2AC",
"8X c #F7ECB6",
"9X c #FAF3B4",
"0X c #F7F3BA",
"qX c #FBF3BB",
"wX c #9195C1",
"eX c #FCEFC4",
"rX c #FCF2C4",
"tX c #FCF3CC",
"yX c #F8F8CE",
"uX c #FCF4D3",
"iX c #FAF6DB",
/* pixels */
"X X X X X X X X X X X X X X X X X X X X X X X X X X X X X X X X < p q s a w a a a i $ X o X X X X X X X X X X X X X X X X X X X ",
"X X X X X X X X X X X X X X o X X X X X X X X X X X X X X X X X 1 S Y n P L P P H D & X o X X X X X X X X X X X X X X X X X X X ",
"X X X X X X X X X X X X o X . . X X X X X X X X X X X X X X X X   : g A S W ~ ^ W ~ d X X o X X X X X X X X X X X X X X X X X X ",
"X X X X X X X X X X X X X > [.[.X X X X X X X X X X X X X X X X [.  > ;.I ` v.x.x.c.( 8 v 8 N @ X - X X X X X X X X X X X X X X ",
"X X X X X X X X X X X o   XX+XOX{.. X X X X X X X X X X X X X X X X {.l B 0.m.c.X.X.( D P L K k X X X X X X X X X X X X X X X X ",
"X X X X X X X X X X X o   XXwX+X|.. X X X X X X X X X X X X X X X . |.XX|.x q.8.j.m.X.` ] ] 9.h.g = $ X X X X X X X X X X X X X ",
"X X X X X X X X X X X o . }.oXXX> X X X X X X X X X X X X X X X X X > [.[.: ,.w.k.l.c.X.X.#.l.g.F A O X o X X X X X X X X X X X ",
"X X X X X X X X X X X X o .     X X X X X X X X X X X X X X X X X X X X . ; = g h.j.f.X.X.C.I.C.! G + X o X X X X X X X X X X X ",
"X X X X X X X X X X X X X X > X X X X X X X X X X X X X X X X X X X X X X X X X c y.e.n.o.:XeX0XI.c.1.e w $ X X X X X X X X X X ",
"X X X X X X X X X X X X X X X X X X X X X X X X X X X X X X X X X X X X X X - X 5 >.2.N.O.8XiXrXC.} ..n m o X X X X X X X X X X ",
"X X X X X X X X X X X X X X X X X X X X X X X X X X X X X X X X X X X X X X X X - X 3 0.i.@X;X;X@X;XY.! ) # $ X X X X X X X X X ",
"X X X X X X X X X X X X X X X X X X X X X X X X X X X X X X X X X X X X X X X X X X X -.4.| { l.8XiX4X@.N.( m w X o X X X X X X ",
"X X X X X X X X X X X X X X X X X X X X X X X X X X X X X X X X X X X X X X X X X - X %.t.h.v.n.8XuX2XO.O.! H 7 X X X X X X X X ",
"X X X X X X X X X X X X X X X X X X X X X X X X X X X X X X X X X X X X X X X X X X X %.t.a.#.x.~.).#X2X8XT. .9.d O * X X X X X ",
"X X X X X X X X X X X X X X X X X X X X X X X X X X X X X X X X X X X X X X X X X X X *.i.a.v.x.G.G.).yXiX#X@.m.T J 4 X X X X X ",
"X X X X X X X X X X X X X X X X X X X X X X X X X X X X X X X X X X X X X X X X X X X 5 $.V.c.j.H.v.#XyXtX@X+.f.G S & X o X X X ",
"X X X X X X X X X X X X X X X X X X X X X X X X X X X X X X X X X X X X X X X X X X o X X x 2.2.s.@.).uXuX@X+.j.T S & - - X X X ",
"X X X X X X X X X X X X X X X X X X X X X X X X X X X X X X X X X X X X X X X X X X X ; X % <.5.j.+.Y.tXtXE.[ X.b m % X X X X X ",
"X X X X X X X X X X X X X X X X X X X X X X X X X X X X X X X X X X X X X X X X X X X X X < <.3.j.+.R.tXuX1XE.E.8.~ # X X X X X ",
"X X X X X X X X X X X X X X X X X X X X X X X X X X X X X X X X X X X X X X X X X X X - X < <.3.a.+.R.tXuXtXuXrXD.b.9.7 r X X X ",
"X X X X X X X X X X X X X X X X X X X X X X X X X X X X X X X X X X X X X X X X X X X X X < <.5.j.+.R.tXiXtXuXeXD.x.` K 0 X o X ",
"X X X X X X X X X X X X X X X X X X X X X X X X X X X X X X X X X X X X X X X X X X X X X < <.3.j.+.R.tXuXrXuXeXD.v.9.H l X X X ",
"X X X X X X X X X X X X X X X X X X X X X X X X X X X X X X X X X X X X X X X X X X X - X < <.5.j.+.R.yXuXtXuXrXZ.@.` H 7 X ; - ",
"X X X X X X X X X . X X X X X X X X X X X X X X X X X X X X X X X X X X X X X X X X X X X < <.3.j.@.R.tXtXtXtXeXY.F.B.G C : X X ",
"X X X X X X X X [.[.[.. X X X X X X X X X X X X X X X X X X X X X X X X X X X X X X X X X < <.5.j.+.R.9XqXrXuXuX0XtX1X{ k.;.h i ",
"X X X X X X X . {..X.XX . X X X X X X X X X X X X X X X X X X X X X X X X X X X X X X X X < <.5.j.+.U.7X9XrXyXtXyXuX8X{ c.E K h ",
"X X X X X X X X {..X XX X X X X X X X X X X X X X X X X X X X X X X X X X X X X X X X ; X < <.3.V.@.R.eXrXrXrXrXtXuX3XX.v.~ P i ",
"X X X X X X X X X > o X X X X X X X X X X X X X X X X X X X X X X X X X X X X X X X X X X < <.5.j.+.R.tXuXrXqXqXrXuX3XX.c.~ H w ",
"X X X X X X X X X X X X X X X X X X X X X X X X X X X X X X X X X X X X X X X X X X X ; o < <.5.j.+.R.rXtXrXqXrXrXtX2Xo.n.~ H a ",
"X X X X X X X X X X X X X X X X X X X X X X X X X X X X X X X X X X X X X X X X X X X X X < <.5.j.+.U.rXqXrXtXrXrXrX:XX.n.~ H a ",
"X X X X X X X X X X X X X X X X X X X X X X X X X X X X X X X X X X X X X X X X X X X X X : <.3.j.+.U.9XqXrXtXrXqXqX;XO.m.~ H a ",
"X X X X X X X X X X X X X X X X X X X X X X X X X X X X X X X X X X X X X X X X X X X o o 4 3.2.h.#.U.9XrXrXtXtXqXrX:X@.v.~ H a ",
"= q : X X X X X X X X X X X X X X X X X X X X X X X X X X X X X X X X X X X X X X X X 2 z u.m.f.A.G.).9XqXqXqXeXrXuX3X .m.~ H a ",
"r Y : X X X X X X X X X X X X X X X X X X X X X X X X X X X X X X X X X X X X X X X X :.6.g.x.n.H.G.).9XqX9X9XqXrXuX2X+.M.~ H a ",
"s Y p X > X X X X X X X X X X X X X X > o X X X X X X X X X X X X X X X X X X X X o X %.y.a.v.n.~./.#X0XqXqX9XqXrXtX3X@.n.~ H a ",
"r P F V h X - o X X X X X X X X X . >  X X[.X X X X X X X X X X X X X X X X X X X ; X %.y.a.#.n.%X,X<X0XqXqX9X9XrXqX-XO.x./ n k ",
"r I A I 7 X X X X X X X X X X X X . [..X.X[.. o X X X X X X X X X X X X X X X X ; - o *.5.h.@.z.#X>X6X9XqXqXqXqXqXqX;Xz.b./ 7 i ",
"r J W d.p.x = < X X X X X X X X X X X [.{.> . X X X X X X X X X X X X X X X X X < 2 =.h.d.U.#X#X5X7X7X6X6X7XqX4XE.U.B.R W 5 X X ",
"u P ( v.v.8.4.z o - X X X X X X X X X . . X X X X X X X X X X X X X X X X X > X z y.e.v.x.#X7X6X9XqX9X<X<X7XqX4Xz.+.` D 8 X - X ",
"u H ~ x.f.8.y.=.X X X X X X X X X X X X X X X X X X X X X X X X X X X X X X X X -.5.q.n.@.#X6X6X7X9X7X6X3X7X9X6XD.v.q.L 9 X X X ",
"u J ! c.X.f.x.a.$.5 $ X X - X X X X X X X X X X X X X X X X X X X X X X o : z *.N.x.m.K.J.%X6X6X6X7X6X9X9X5X,X-XZ.b.9.H 8 X o X ",
"a A E @.f.x.v.d.6.<.: X X X X X X X X X X X X X X X X X X X X X X X X X o = r.5.k.x.v.J.A.$X<X<X6X6X7X0X0X6X6X>XZ.#.9.H 8 X o X ",
"; % &.' ~ f.x.d.q.0.5 X X X ; . X X X X X X X X X X X X X X X X - > > X X =.q.q.m.N.F./.^.%X6X6X6X<X<X9X7X%X`.`.n.v.9.H 8 X X X ",
"- X ; V H ..X.X.v.N.q.>.*.:.,.5 X - - o X > X o X o X X ; X ; X 2 >.>.:.*.g.b.v.K.H.Q.*X*X>X6X6X6X6X,X6X6X).M.J.v.v.9.K 9 X o X ",
"X X ; B L ` f.X.v.n.q.4.t.5.i.g X o X X X X X X X X X X X - X X z 6.3.5.t.h.x.x.F.J./.%X%X>X<X<X<X6X<X>X<X^.H.K.x.m.9.N a X X X ",
"X X ; N D ..c.x.N.H.n.h.j.h.h.u.5 2 2 3 2 4 4 4 4 4 4 4 4 4 2 5 q.h.h.s.h.M.H.J._.`.'.>X>X>X=X-X<X<X>X/.~.F.v.n.R T x X X X X X ",
"X X ; B U | v.v.K.J.M.n.x.x.x.m.w.r.4.4.4.4.r.r.4.4.4.4.4.4.4.5.m.n.x.O.x.M.H.L.$X=X>X6X<X=X*X%X>X6X%XH.H.M.@.f.G m % X - X X X ",
"X X o a j p.x.f.H.J.M.x.x.x.x.j.2.4.3.3.3.3.3.3.3.3.3.3.3.3.2.2.j.x.n.n.n.A.J.W._.$X%X6X<X=X*X%X=X-X$XJ.H.M.l.X.T S & X X X X X ",
"X X X X X f G W v.n.M.H.K.H.H.S.n.j.k.j.j.g.x.j.j.j.g.n.n.j.j.j.A.H.W.'._.'.'.'.*X&X&X$X$X>X<X-X~.L.J.n.v.x.z.f.G A & X X X X X ",
"X X o ; X O m G c.x.M.K.J.K.K.H.x.x.@.x.x.x.x.x.x.#.x.x.x.x.x.x.H.J.W.$X*X*X*X*X*X*X*X*X$X<X6X6X~.H.G.x.x.n.x.c.G V * X - X X X ",
"X X X X X % $ f q. ...J.H.H.K.K.Z.A.A.A.A.A.A.A.A.A.Z.A.J.J.H.J.K.L.Q.$X%X*X*X*X*X$X*X*X$X$X'.'.F.N.N.n.n...| 7.@ : X X X X X X ",
"X X X X X X X X k P ! x.l.H.K.J.!.(.Q.!.!.!.!.!.!.!.!.!.!.Q.Q.!.!.!._.*X*X*X$X=X$X*X*X&X*XW.G.H.v.x.v.f.c.R n j X X X X X X X X ",
"X X X X X o X X t B ( b.x.K.K.J.!.!.Q.Q.!.!.!.!.!.!.!.!.!.!.(.!.!.!.(.*X*X*X*X%X*X$X$X*X*XW.K.K.n.x.n.n.b./ 8 i X X X X X X X X ",
"X X X X X X X X ; X 6 ! ! s.v.v.Z.M.J.Q.(.!.!.!.!.!.!.!.!.!.!.!.!.!.(.=X*X*X].]./.P.W.W.W.H.v.v.x.v.| R W 5 X X X X X X X X X X ",
"X X X X X X X X X X X 0 U ..v.v.x.@.J.!.(.Q.!.!.!.!.!.!.!.!.!.!.!.!._.*X*X*X*X].L.G.G.J.H.v.n.v.n.v...H V X X X X X X X X X X X ",
"X X X X X X X X X X X + y 9.f.X.f.f.n.Q.P.Q.W.W.!.Q.Q.Q.!.!.!.!.(.!.(.*X*X_._._.L.H.H.J.H.g.d.f.f.x.1.i a X X X X X X X X X X X ",
"X X X X X X X X X X X X X a U G L D ~ n.x.x.x.v.W.Q.(.Q.Q.Q.Q.(.(.!.Q././.A.z.x.x.v.@.x.n.R D G F J 1 X X X X X X X X X X X X X ",
"X X X X X X X X X X X - X @ S M M m ~ b.z.v.x.M.P.!.(.(.(.(.!.Q.Q.!.Q.Q.!.J.x.v.b.v.n.n.c.~ M M M M 1 X - X X X X X X X X X X X ",
"X X X X X o }.|., X X X X ; * % * $ x ( ) ) ) ` K.L.L.L.F.K.F.J.J.L.L.F.L.p.) _ _ _ 7.( ] c $ * * * - X X X X X X X X X X X X X ",
"X X X X X > .X.X[.. X X X X X X X X - 9 U L H F j.x.x.g.x.c.x.x.x.x.x.x.n.R H L H J D U 9 X o X X X X X X X X X X X X X X X X X ",
"X X X X X - |.|.> X X X X X X X - X X a k k k C m.c.v.c.n.c.v.v.x.v.c.l.N.^ 7 k k k k l @ X o X X X X X X X X X X X X X X X X X ",
"X X X X X X X X X X X X X X X X X X X X X X X < ;.T W Q Q W Q Q Q Q W Q Z 4 X X X X . X X X X X X X X X X X X X X X X X X X X X ",
"X X X X X X X X X X X X X X X X X X X X X - - X r U P H J P J J H H L U 9 X X X X - - X ; X X X X X X X X X X X X X X X X X X X ",
"X X X X X X X X X X X X X X X X X X X X X X - - + h t h h t h h t h e w w o X X X X X X X X X X X X X X X X X X X X X X X X X X "
};
