/* XPM */
static char *result[] = {
/* columns rows colors chars-per-pixel */
"64 64 206 2 ",
"   c #000001",
".  c #0B0F0C",
"X  c #0A150B",
"o  c #0E1310",
"O  c #121413",
"+  c #15171D",
"@  c #151B1A",
"#  c #191D1E",
"$  c #09250C",
"%  c #0A290C",
"&  c #0E2911",
"*  c #17261A",
"=  c #123116",
"-  c #1B321E",
";  c #191C26",
":  c #1D2223",
">  c #1C2A23",
",  c #16202A",
"<  c #1C2128",
"1  c #0C3126",
"2  c #153123",
"3  c #1D3524",
"4  c #1B342A",
"5  c #1E2334",
"6  c #1F243B",
"7  c #1F2A3C",
"8  c #1E3539",
"9  c #212329",
"0  c #262B2A",
"q  c #213625",
"w  c #23392A",
"e  c #2B3E2A",
"r  c #232C34",
"t  c #21273B",
"y  c #232A3C",
"u  c #2E3131",
"i  c #213836",
"p  c #253739",
"a  c #2B3739",
"s  c #2C3C3D",
"d  c #333D3C",
"f  c #383E3D",
"g  c #274030",
"h  c #2E4334",
"j  c #32443A",
"k  c #36443B",
"l  c #242942",
"z  c #263646",
"x  c #2F3D42",
"c  c #323D41",
"v  c #383E43",
"b  c #333E4C",
"n  c #383D4A",
"m  c #2C3455",
"M  c #2D3E56",
"N  c #2F365A",
"B  c #2F3D59",
"V  c #323854",
"C  c #323A5D",
"Z  c #353C64",
"A  c #313C6D",
"S  c #344444",
"D  c #3C4242",
"F  c #3B4B42",
"G  c #3C444B",
"H  c #374849",
"J  c #3C4B4B",
"K  c #365149",
"L  c #3E524C",
"P  c #354253",
"I  c #3A4655",
"U  c #3A455D",
"Y  c #3B5856",
"T  c #394367",
"R  c #3A436C",
"E  c #374171",
"W  c #3D4675",
"Q  c #3F4875",
"!  c #414C46",
"~  c #414A4B",
"^  c #484F4E",
"/  c #43544D",
"(  c #4A4D55",
")  c #424C5E",
"_  c #455651",
"`  c #4A5653",
"'  c #4B5A55",
"]  c #455758",
"[  c #4B545B",
"{  c #4F5B5A",
"}  c #535857",
"|  c #515D5B",
" . c #4D615F",
".. c #54625F",
"X. c #424B67",
"o. c #4C5465",
"O. c #4A5768",
"+. c #4C566B",
"@. c #545968",
"#. c #424A75",
"$. c #444C7A",
"%. c #4A5274",
"&. c #47507C",
"*. c #4B5478",
"=. c #4C547C",
"-. c #535B72",
";. c #555B74",
":. c #51597A",
">. c #4D6261",
",. c #546362",
"<. c #5B6564",
"1. c #5B6866",
"2. c #566569",
"3. c #5C6769",
"4. c #5D6B6A",
"5. c #5A6378",
"6. c #5B647C",
"7. c #626E67",
"8. c #626F6F",
"9. c #63716C",
"0. c #68766E",
"q. c #656E74",
"w. c #647171",
"e. c #6A7575",
"r. c #6C7B74",
"t. c #6D747D",
"y. c #6C7979",
"u. c #717676",
"i. c #737C7C",
"p. c #787D7C",
"a. c #78817F",
"s. c #4C5482",
"d. c #4F5886",
"f. c #545B84",
"g. c #585F84",
"h. c #535C8A",
"j. c #5A6285",
"k. c #58608F",
"l. c #5B6392",
"z. c #656C82",
"x. c #636A8A",
"c. c #686E88",
"v. c #6B7184",
"b. c #6B728B",
"n. c #747B84",
"m. c #76798B",
"M. c #676D98",
"N. c #6F8181",
"B. c #768383",
"V. c #798484",
"C. c #7E8B8B",
"Z. c #828D8D",
"A. c #8C8C8C",
"S. c #958C88",
"D. c #87928E",
"F. c #849192",
"G. c #8A9595",
"H. c #8D979E",
"J. c #8E999A",
"K. c #929D9D",
"L. c #A89A9C",
"P. c #97A29F",
"I. c #8D91BD",
"U. c #96A2A2",
"Y. c #9BA5A3",
"T. c #9DA9A6",
"R. c #9DA8AC",
"E. c #A4AEAE",
"W. c #B5A5A4",
"Q. c #BCAAAA",
"!. c #A6B1AF",
"~. c #A0ACB0",
"^. c #AAB5B4",
"/. c #ADB8B5",
"(. c #AEBABA",
"). c #B1B6B6",
"_. c #B2BDBD",
"`. c #CAB1AF",
"'. c #CDB7B7",
"]. c #D3B7B5",
"[. c #D7BCBA",
"{. c #9195C1",
"}. c #B7C2C2",
"|. c #B9C5C4",
" X c #BEC9C9",
".X c #C3CDCC",
"XX c #C6D0CF",
"oX c #C7D1D1",
"OX c #CAD5D5",
"+X c #CFDAD9",
"@X c #D2DCDD",
"#X c #EACCCD",
"$X c #F8D5D5",
"%X c #D5E0DF",
"&X c #D6E1E1",
"*X c #D9E4E4",
"=X c #DAE5E8",
"-X c #DEE9E9",
";X c #E2EDED",
":X c #E9EFEE",
">X c #E5F0EF",
",X c #E6F1F1",
"<X c #EAF5F5",
"1X c #ECF8F7",
"2X c #EEF9F9",
"3X c #F2FBFB",
/* pixels */
"W W W W W Q W W W W W W W W W W W W W W W W W W W W W W W W W W W W W W W W W W W W W W W W W W W W W W W W W W W Q W W W W W W ",
"W W W W W Q W W W W W W W W Q Q W W W W W W W W W W W W W W W W W W W W W W W W W W W W W W W W W W W W W W W W W W W W W W W W ",
"W W W W Q W W W W W W W W W A W W W W W W W W W W W W W W W W W W W W A W W W W W W W W W W W W W W W W W W W W Q W W W W W W W ",
"W W W W W W W W W W W W W $.d.s.Q W Q W W W W W W W W W W W W W W W W s.s.W W W W W W W W W W W W W W W W W W W W W W W W W W W ",
"W W W W W W W W W W W Q A M.I.I.h.A $.W W W W W W W W W W W W W Q Q h.k.d.W W W W W W W W W W W W W W W W W W W W W W W W W W W ",
"W W W W W W W W W W W Q A M.{.I.h.A Q W W W W W W W W W W W W W W A h.k.h.W W W W W W W W W W #.W Q W W W W W W W W W W W W W W ",
"W W W W W W W W W W W Q E h.M.M.s.E W W W W W W W W W W W W W W W W s.s.s.W W W W W W W #.%.5.-.*.$.W W W W W W W W W W W W W W ",
"W W W W W W W W W W W W #.A A A W W W W W W W W W W W W W W W W W W W W A W W W W W W W N 5 + + V X.W W W W W W W Q W W W W W W ",
"W W W W W W W W W W W W W W $.W W W W W W W W W W W W W W W W W W W W W W W W W W W #.=.c.n.7.* d o.:.:.:.:.:.:.=.=.#.Q W W W W ",
"W W W W W W W W W W W W W W W W W W W W W W W W W W W W W W W W W W W W W W W W W W Z @.U.@X|.h q d n v n n n n n n C W W W W W ",
"W W W W W W W W W W W W W W W W W W W W W W W W W Q W W W W W W W W W W W W W W #.*.z ( P.*X|.h % X . @ u u u u 0 # t A W W W W ",
"$.W W W W W W W W W W W W W W W W W W W W W W W W W W W W W W W W W W W W W W #.#.6.@.7.V.J.V.3 - 3 h 7..XXXOXoXY.| z R W W W W ",
"W W W W W W W W W W W W W W W W W W W W W W W W W W W W Q W W W W W W W W W W A t 1 ,.8.>.Y K 3 - $ - 0.,X1X2X1X(.] m W W W W W ",
"W W W W W W W W W W W W W W W W W W W W W W W W W W W W W Q W W W W W W W W #.Z t k ,.e.A.L.S.q 3 h / w.^._.!.R.F.6.E W W W W W ",
"W W W W W W W W W W W W W W W W W W W W W W W W W W W W W W W W W W W W W W W Z y ! ,.u.W.#X'.e 3 ~ 7.8.y.y.^ G X.s.W Q Q W W W ",
"W W W W W W W W W W W W W W W W W W W W W W W W W W W W W W W W W W W W W W W A t ~ >.i.Q.$X].g 3 _ 8.8.1.1.0 ; m #.W Q W W W W ",
"W W W W W W W W W W W W W W W W W W W W W W W W W W W W W W W W W W W W W W W Z y !  .u.Q.$X].e 3 _ 9.9.w.w.F h U W W W W W W W ",
"W W W W W W W W W W W W W W W W W W W W W W Q W W #.W #.#.W Q Q Q #.W #.W #.W Z < !  .p.Q.$X].g 4 _ 8.8.8.8.h 8 M W W W W W W W ",
"W W W W W W W W W W W W W W W W W W Q W Q W W Q $.j.c.b.b.b.b.b.b.b.b.b.b.b.c.[ @ F  .u.W.$X].g 3 _ 8.8.8.9.h 8 M W W W W W W W ",
"W W W W W W W W W W W W W W W W W W W W W W Q W z.n 9 9 9 9 9 9 9 9 9 9 9 9 9 > = k  .u.`.$X].e 3 _ 8.8.9.0.j i M W W W W W W W ",
"W W W W W W W W W W W W W W W W W W W $.s.g.j.x.n.~ f } <.<.<.<.<.@.<.<.} d 0 > = k @.r.L.[.Q.e 4 _ 8.8.8.9.j i P W W W W W W W ",
"W W W W W W W W W W W W W W W W W W W :.+.( [ @.1.] y./.OXXXXXoXoXoXXXOX_.i.| F & j ,.w.a.A.p.- 3 _ 4.8.8.8.j 8 B W W W W W W W ",
"W W W W W W W W W W W W W W W W W $.s.6.v . O . J ] F.+X3X<X1X1X1X1X<X3X@XZ.<./ & j <.1.2.>.Y = q _ 9.9.8.8.j 8 B E W W W W W W ",
"W W W W W W W W W E W W W W W W W =.m.n.<.} <.' G.^. X&X>X:X>X,X:X:X:X:XOXV.,.,._ ` / ` <.w.7.` ' ..9.8.8.8.j p P W W W W W W W ",
"W W W W W W W W $.s.s.W W W W W #.;.: ~ 3.8.>.S ~.=X,X>X,X,X,X,X:X,X<X2X+XC.1.8.8.,.# > / 7.8.4.4.8.4.8.9.w.g 2 z W W W W W W W ",
"W W W W W W #.E d.l.k.Q W W $.f.m.q.d ' 3.y.Z.C. X-X,X>X,X<X,X,X,X>X*XOX}.B.3.8.8.<.k S { 8.8.8.w.w.w.w.w.w./ j >.l.&.W W W W W ",
"W W W W W W W W d.l.h.$.W W %.o.( 8.,.4.4.B.|.+X=X;X,X,X,X,X,X>X<X;X|.N.V.e.4.8.8.8.,.,.4.8.8.8.8.3.1.2.3.3.,.@.O.G m W W W W W ",
"W W W W W #.f.g.h.g.g.f.f.g.6.J 9 1.w.w.2.B.+X2X,X,X,X,X,X,X,X,X,X-X^.J 2.8.8.8.8.8.8.w.8.8.8.8.w.e.y.e.y.e.e.w.L < y :.&.Q W W ",
"W W W W W #.z.v.v.v.v.z.v.n.v.<./ 7.8.w.3.B.OX1X>X>X,X<X,X,X,X,X<X-X_.,.8.8.8.8.8.8.8.8.8.8.8.4.e.K.(._._.(.C.w.<.| ] t.-.Q W W ",
"W W W #.Z ;                 u 3.e.8.8.w.4.V.OX1X,X,X,X,X,X,X,X,X,X-X(. .8.8.8.8.8.w.8.8.w.9.4.] 8.}.<X2X3X1XK.,.| 8.8.$ , N W W ",
"W W W s.b.n.B.a.B.a.p.p.} k ` 7.8.8.9.w.4.B.OX1X,X,X,X,X<X,X<X,X,X-X(.>.8.w.8.8.8.8.8.8.8.8.y.G.Y.oX,X-X.X.XE.U.Z.e.4.F p B W W ",
"W W A R q.OX+X+X+X+X@XOXZ.<.1.8.4.w.8.w.4.B.OX1X,X,X,X,X,X,X,X,X<X;X_.>.4.8.8.8.8.8.8.w.4.4.Z.OX%X:X3X.XD f E.+X(.i.,.~ r m W W ",
"W W T P r.,X1X,X,X,X-X&XG.w.4.w.8.8.8.w.4.B.OX1X,X,X,X,X,X,X,X;X-X@X^.@.8.8.8.8.8.8.8.w.4.4.G.-X,X:X;X).# # !.;X.Xp.,./ p U =.W ",
"W W M G r.-X,X,X;XOXE.H.B.8.4.8.8.8.8.w.4.B.OX1X,X,X<X,X,X,X<X&X_.U.G.4.8.8.4.8.8.8.w.w.4.8.G.-X;X(.A.u.u 9 ^.;X|.i.,.,./ ) O.E ",
"W #.M a 9.;X,X<X,X_.4.Y 4.4.8.8.8.8.8.w.2.B.OX1X,X,X,X,X,X;X1XOXB.L 4.8.8.8.8.8.w.8.8.8.4.4.G.-X;X7.O O O O E.;X Xn.2.w.8.Y 8 m ",
"W x.n.V.T.;X,X,X,XoXY.J.y.8.8.8.8.w.8.8.4.B.}.@XOXOX+XOXOXOX+X}.C.3.e.4.8.8.8.w.8.8.8.w.4.w.C.oX.XY.n.p.p.p.(.oX/.i.<.9.8.{ c 6 ",
"N o.R.%X=X,X,X,X,X,X-X&XG.8.4.w.8.8.q.8.4.w.y.y.y.y.y.e.y.y.y.t.w.4.8.8.8.8.8.8.8.8.8.w.8.8.w.w.V._.%X*X&X%XU.i.w.w.7.8.8.' c 6 ",
"l o./.,X,X,X,X,X,X-X=X&XF.8.4.w.8.8.w.8.w.4.4.4.4.4.4.4.4.4.4.4.8.4.8.8.8.8.8.8.8.w.8.8.8.8.9.2.y.).=X=X=X&XJ.8.3.8.8.8.w.{ x 6 ",
"6 | /.>X,X,X,X,X;XOXR.K.N.8.8.w.4.w.4.w.4.w.w.w.w.w.w.w.w.8.w.8.8.w.w.8.8.8.8.8.8.8.8.8.8.8.8.4.e.F.U.U.U.U.B.w.4.8.8.8.w.' s t ",
"6 { ^.,X,X,X,X<X,X}.y.>.8.8.8.8.w.8.8.w.w.8.8.w.4.8.8.8.8.8.8.w.8.8.8.8.8.8.8.w.8.8.8.w.8.8.w.w.w.3.3.<.1.1.7.8.w.8.8.8.8.[ x 6 ",
"6 [ /.,X,X,X,X,X,X|.n.4.8.8.8.8.w.8.w.4.w.w.4.w.8.w.8.8.8.8.8.8.8.8.8.w.8.w.8.8.8.8.8.8.w.8.8.4.8.8.8.w.8.8.8.8.8.8.8.8.w.' c t ",
"t | /.,X,X,X,X<X,X}.e.{ 8.8.8.8.4.w.w.w.w.8.8.w.8.8.8.8.8.w.8.8.8.8.8.8.8.8.8.8.w.8.w.8.w.4.8.w.8.8.8.w.8.8.w.8.8.8.8.2.4.Y s 6 ",
"6 | /.,X,X,X,X,X,X XZ.i.e.8.4.8.w.w.4.4.8.8.8.8.8.8.8.8.8.8.8.8.8.w.8.8.8.8.8.8.8.w.8.8.w.w.w.4.8.8.8.4.8.4.4.w.8.8.8.y.p.7.v 6 ",
"6 [ /.,X,X,X,X,X;X*XXX|.C.8.4.w.w.8.w.w.8.8.8.w.8.w.8.8.8.8.w.8.8.8.8.8.w.8.8.8.8.8.8.8.w.4.w.w.8.8.8.8.w.w.w.8.8.8.8.W.'.S.( 6 ",
"t @.^.;X<X,X,X,X,X,X,X-XG.8.4.w.8.8.8.w.8.w.w.8.8.8.8.8.8.8.8.8.8.8.8.8.8.8.8.8.8.8.8.8.8.8.4.9.8.7.8.8.7.4.9.9.8.4.8.].#XL.@.l ",
"6 [ ^.,X,X,X,X,X,X,X,X-XH.w.4.w.8.8.8.8.w.4.8.8.8.8.w.8.8.8.8.8.8.8.w.8.8.8.w.8.w.8.w.4.8.8.4.' ] / / / / / / / / / / S.L.m.;.W ",
"t [ !.,X<X;X,X,X,X,X,X-XJ.9.4.w.w.4.w.8.8.8.w.8.w.8.8.8.8.8.8.8.8.8.8.8.8.8.8.8.8.8.8.8.8.8.>.w - & % $ $ $ $ $ $ $ o q 5 N W W ",
"R ;.R.@X;X,X,X,X,X;X-X&XG.8.4.w.w.w.w.4.w.8.8.8.8.8.8.8.8.w.8.8.w.8.8.8.w.8.8.8.8.8.w.8.8.8.,.3 w S ) ) ) ) ) ) ) ) ( ) T R W W ",
"W #.O.4.K.,X,X<X,X}.y.' 8.8.8.8.8.8.8.8.w.8.w.8.8.8.8.w.8.8.8.8.w.w.8.9.w.w.8.9.8.8.8.8.8.8.... S T #.X.W R #.#.R #.#.R W W W W ",
"W W T U y.&X;X;X-X~.] s ,.8.8.8.8.9.4.w.8.8.8.8.8.8.w.4.8.8.4.8.4.4.9.9.8.4.w.8.8.8.8.8.8.8.,.r U X.W W W W W W W W W W W W W W ",
"W W W R 5.H.Y.Y.U.B.X.P @.J ' 4.4.w.8.8.8.w.8.8.8.8.8.8.8.,./ / _ L L L L K / ,.8.8.8.7.' ~ -.U W W W Q W W W W W W W W W W W W ",
"W Q Q Q W ) K F I R Q W +.< k 4.9.8.8.w.8.8.8.8.w.8.8.4.7.` - q 3 4 4 4 4 - 4 _ 8.8.8.1.d + ;.W W W Q W W W W W W W W W W W W W ",
"W W W W W T M z B W W W #.z I 3.2.3.3.4.8.8.8.8.8.4.w.y.y. .& q S P P P P b H [ 3.8.y.y.k + ;.#.W W W W W W W W W W #.W W W W W ",
"W W W W W W R W W W W W W E %.~ o j 3 / 3.w.8.8.w.2.C.|.%XY.: ( j.E W R R W f.@.; 0..X+Xu.+ @.#.W W W W W W W W W W W W W W W W ",
"W W W W W W W W W W W W W W #.V 5 x 4 L 3.9.9.8.e.,.C.OX:X!.* o.j.W W W W W $.R l e.+X@Xn.t #.W W W W W W W W W W W W W W W W W ",
"W W W W W W W W W W W W W #.#.R C T B O._ j ` / _ F ,.D.Y.a.O [ j.W W W W W #.R R v.F.H.6.C #.W W W W W W W W W W W W W W W W W ",
"W W W W W W W W W W W W W W W W W W W :.b > s a a p x J ^ J + X.:.Q W W W W W W $.h.X.+.:.W W W Q W W W W W W W W W W W W W W W ",
"W W W W W W W W W W W W W W W W W W W #.m 7 8 6 6 7 7 6 6 7 7 T &.W W W W W W W W W C R #.W W W W W W W W W W W W W W W W W W W ",
"W W W W W Q h.h.$.W W W W W W W W W W W W W W W W W W W W W W W W W W W W W W W W W W W W W W W W W W W W W W W W W W W W W W W ",
"W W W W W $.l.l.s.E W W W W W W W W W W W W W W W W W W W W W W W W W W W W W W W W W W W W W W W W W W W W W W W W W W W W W W ",
"W W W W W $.d.h.$.W W W W W W W W W W W W W W W W W W W W W W W W W W W W W W W W W W W W W W W W W W W W W W W W W W W W W W W ",
"W W W W W W W W W W W W W W W W W W W W W W W W W W W W W W W W W W W W W W W W W W W W W W W W W W W W W W W W W W W W W W W W ",
"W W W W W W W W W W W W W W W W W W W W W W W W W W W W W W W W W W W W W W W W W W W W W W W W W W W W Q W W W W W W W W W W W ",
"W W W W W W W W W W W #.W W W W W W W W W W W W W W W W W W W W W W W W W W W W W W W W W W W W W W W W W W Q W W W W W W W W W "
};
